<?xml version="1.0" encoding="UTF-8" standalone="no"?>
<!-- Created with Inkscape (http://www.inkscape.org/) -->

<svg
   xmlns:dc="http://purl.org/dc/elements/1.1/"
   xmlns:cc="http://creativecommons.org/ns#"
   xmlns:rdf="http://www.w3.org/1999/02/22-rdf-syntax-ns#"
   xmlns:svg="http://www.w3.org/2000/svg"
   xmlns="http://www.w3.org/2000/svg"
   xmlns:sodipodi="http://sodipodi.sourceforge.net/DTD/sodipodi-0.dtd"
   xmlns:inkscape="http://www.inkscape.org/namespaces/inkscape"
   width="90"
   height="57"
   id="svg4787"
   version="1.1"
   inkscape:version="0.48.0 r9654"
   sodipodi:docname="aboutUs.svg">
  <defs
     id="defs4789" />
  <sodipodi:namedview
     id="base"
     pagecolor="#ffffff"
     bordercolor="#666666"
     borderopacity="1.0"
     inkscape:pageopacity="0.0"
     inkscape:pageshadow="2"
     inkscape:zoom="3.959798"
     inkscape:cx="137.43654"
     inkscape:cy="43.149194"
     inkscape:document-units="px"
     inkscape:current-layer="layer1"
     showgrid="false"
     inkscape:window-width="1280"
     inkscape:window-height="723"
     inkscape:window-x="0"
     inkscape:window-y="24"
     inkscape:window-maximized="1" />
  <metadata
     id="metadata4792">
    <rdf:RDF>
      <cc:Work
         rdf:about="">
        <dc:format>image/svg+xml</dc:format>
        <dc:type
           rdf:resource="http://purl.org/dc/dcmitype/StillImage" />
        <dc:title></dc:title>
      </cc:Work>
    </rdf:RDF>
  </metadata>
  <g
     inkscape:label="Layer 1"
     inkscape:groupmode="layer"
     id="layer1"
     transform="translate(0,-995.36218)">
    <path
       style="fill:#ffffff;fill-opacity:1;stroke:none;display:inline"
       d="m 3.4944381,1001.4544 80.3534119,-4.02827 3.527087,3.52477 0.128262,47.8357 -1.859739,1.6785 -34.308924,0.5035 -13.402924,0.5035 -5.707462,-0.3356 -28.6655835,-2.0142 -1.2825769,-15.106 -0.1282566,-29.5407 z"
       id="path4644"
       inkscape:connector-curvature="0" />
    <path
       style="fill:#000000;fill-opacity:1;display:inline"
       d="m 83.934411,1052.1032 c -15.884299,-3.7012 -15.617948,3.3581 -81.4959606,-2.7966 0.2183645,-3.1259 -1.1484369,-21.3797 -0.984339,-32.0103 -0.174145,-1.931 -0.1311122,-10.2563 0.1625372,-13.5305 3.636249,-11.63931 14.9550114,-0.6311 21.1091534,-5.43665 11.543919,-1.30184 -5.854886,-2.38434 61.998013,-1.51479 8.031561,3.47574 0.862603,7.27124 3.415984,23.51634 -0.73619,16.6764 0.216645,15.664 0.213522,29.2526 -0.944213,4.1088 -2.965367,1.8539 -4.41891,2.5199 z m 2.437301,-3.3634 c 0.254937,-5.9976 1.316958,6.5465 0.475692,-47.4314 -8.414489,-4.29652 -17.943258,-1.0542 -26.795972,-2.19195 -1.61145,-0.52527 9.248016,-1.16583 -56.8790468,3.65205 -1.0196909,2.5352 -0.2543313,1.2388 -0.2597539,37.9101 3.5086573,17.86 18.4841837,2.4946 26.0265807,8.0877 11.088343,4.368 -9.070963,1.9732 57.232444,0.4804 l 0.20002,-0.5069 z"
       id="path3913-1"
       inkscape:connector-curvature="0"
       sodipodi:nodetypes="cccccccccccccccccc" />
    <text
       xml:space="preserve"
       style="font-size:32px;font-style:normal;font-variant:normal;font-weight:normal;font-stretch:normal;line-height:125%;letter-spacing:0px;word-spacing:0px;fill:#000000;fill-opacity:1;stroke:none;display:inline;font-family:Purisa;-inkscape-font-specification:Purisa"
       x="7.2954245"
       y="1037.0135"
       id="text4640"
       sodipodi:linespacing="125%"><tspan
         sodipodi:role="line"
         id="tspan4642"
         x="7.2954245"
         y="1037.0135">back</tspan></text>
  </g>
</svg>
