<?xml version="1.0" encoding="UTF-8" standalone="no"?>
<!-- Created with Inkscape (http://www.inkscape.org/) -->

<svg
   xmlns:dc="http://purl.org/dc/elements/1.1/"
   xmlns:cc="http://creativecommons.org/ns#"
   xmlns:rdf="http://www.w3.org/1999/02/22-rdf-syntax-ns#"
   xmlns:svg="http://www.w3.org/2000/svg"
   xmlns="http://www.w3.org/2000/svg"
   xmlns:sodipodi="http://sodipodi.sourceforge.net/DTD/sodipodi-0.dtd"
   xmlns:inkscape="http://www.inkscape.org/namespaces/inkscape"
   width="35"
   height="23.5"
   id="svg2"
   version="1.1"
   inkscape:version="0.48.0 r9654"
   sodipodi:docname="countDown1.svg">
  <defs
     id="defs4" />
  <sodipodi:namedview
     id="base"
     pagecolor="#ffffff"
     bordercolor="#666666"
     borderopacity="1.0"
     inkscape:pageopacity="0.0"
     inkscape:pageshadow="2"
     inkscape:zoom="16"
     inkscape:cx="22.40625"
     inkscape:cy="12.478571"
     inkscape:document-units="px"
     inkscape:current-layer="layer1"
     showgrid="false"
     inkscape:window-width="1280"
     inkscape:window-height="723"
     inkscape:window-x="0"
     inkscape:window-y="24"
     inkscape:window-maximized="1" />
  <metadata
     id="metadata7">
    <rdf:RDF>
      <cc:Work
         rdf:about="">
        <dc:format>image/svg+xml</dc:format>
        <dc:type
           rdf:resource="http://purl.org/dc/dcmitype/StillImage" />
        <dc:title></dc:title>
      </cc:Work>
    </rdf:RDF>
  </metadata>
  <g
     inkscape:label="Layer 1"
     inkscape:groupmode="layer"
     id="layer1"
     transform="translate(0,-1028.8622)">
    <g
       style="font-size:32px;font-style:normal;font-variant:normal;font-weight:normal;font-stretch:normal;line-height:125%;letter-spacing:0px;word-spacing:0px;fill:#000000;fill-opacity:1;stroke:none;font-family:Purisa;-inkscape-font-specification:Purisa"
       id="text3089">
      <path
         d="m 34.7365,1037.1985 c -1.9e-5,1.6363 -0.224019,3.3332 -0.672,5.0907 -0.426685,1.7374 -0.949351,3.2322 -1.568,4.4847 -0.59735,1.2525 -1.226683,2.2928 -1.888,3.1211 -0.640015,0.8081 -1.173347,1.2121 -1.6,1.2121 -0.341347,0 -0.565346,0.1616 -0.672,0.4849 -0.06401,0.1818 -0.533346,0.3433 -1.408,0.4848 -0.853344,0.1615 -1.749343,0.2424 -2.688,0.2424 -0.576008,0 -1.034675,-0.071 -1.376,-0.2121 -0.341341,-0.1212 -0.78934,-0.3839 -1.344,-0.7879 -1.130672,-0.8484 -2.122671,-2.1716 -2.976,-3.9695 -0.853336,-1.8182 -1.280002,-3.5252 -1.28,-5.1211 -2e-6,-1.8383 0.437331,-3.6665 1.312,-5.4847 0.874663,-1.8383 1.983995,-3.212 3.328,-4.121 1.279992,-0.8485 2.133325,-1.2727 2.56,-1.2727 0.277324,0 0.714657,-0.2728 1.312,-0.8182 0.597322,-0.5454 1.077322,-0.8181 1.44,-0.8181 0.405321,0 0.735987,-0.1314 0.992,-0.394 0.27732,-0.2828 0.671986,-0.4242 1.184,-0.4242 1.599984,0 2.89065,0.7576 3.872,2.2727 0.981314,1.4949 1.471981,3.5049 1.472,6.0301 m -1.76,-0.5758 c -1.8e-5,-0.5858 -0.309351,-1.4545 -0.928,-2.606 -0.597349,-1.1514 -1.013349,-1.7979 -1.248,-1.9393 -0.256015,-0.1616 -0.661348,-0.2424 -1.216,-0.2424 -0.93868,0 -2.154679,0.2323 -3.648,0.6969 -3.242674,0.9697 -5.226672,3.5252 -5.952,7.6665 -0.213338,1.2525 -0.320004,2.0706 -0.32,2.4544 -4e-6,0.5859 0.255995,1.5959 0.768,3.0302 1.151994,3.0504 2.719992,4.5757 4.704,4.5757 0.554656,0 1.151989,-0.1212 1.792,-0.3637 0.746654,-0.2626 1.65332,-1.1413 2.72,-2.6362 1.087985,-1.5151 1.717317,-2.7677 1.888,-3.7575 0.10665,-0.8283 0.373317,-2.0807 0.8,-3.7575 0.426649,-1.6767 0.639982,-2.717 0.64,-3.1211"
         id="path3096"
         inkscape:connector-curvature="0" />
      <path
         d="m 9.5335,1041.1042 c -0.6826781,0 -1.3546774,1.872 -2.016,1.616 -0.6613428,-0.256 -0.9920091,-0.672 -0.992,-1.248 -9.1e-6,-0.3627 0.1599908,-0.64 0.48,-0.832 0.3199901,-0.192 0.9951564,-1.6645 1.4005,-1.7925 0.4053223,-0.128 0.661322,-0.288 0.768,-0.48 0.1066551,-0.1707 0.4799881,-0.256 1.12,-0.256 0.831987,0 1.500819,-0.5595 2.6315,-0.3035 1.992733,0.3034 2.750499,4.1032 1.696,6.432 l -0.649,3.2585 c -1.216015,2.0053 -0.217014,2.6358 -1.753,3.7665 -1.536011,1.1093 -5.7686757,1.039 -7.198,1.039 -0.8320068,0 -1.6106726,-0.2027 -2.336,-0.608 -0.5546714,-0.2987 -0.9706709,-0.6507 -1.248,-1.056 -0.2560037,-0.4267 -0.52267014,-1.1627 -0.8,-2.208 -0.32000288,-1.1093 -0.48000272,-2.1227 -0.48,-3.04 -2.72e-6,-0.64 0.0639972,-1.4827 0.192,-2.528 0.21333021,-1.7067 -0.0505034,-3.9257 0.3335,-4.907 0.4053291,-0.9813 0.558995,-2.2003 1.711,-3.907 0.8106597,-1.1947 1.9459922,-2.0312 2.906,-2.8845 0.9599902,-0.8533 1.7188228,-1.1275 2.4015,-1.4475 0.703988,-0.32 2.333321,-0.3687 2.888,-0.646 0.575986,-0.2987 1.802986,0.01 2.3685,0.1695 0.650819,0.2623 1.569818,1.8935 2.3195,2.5185 0.358099,0.6873 0.265198,0.7997 0.6695,1.9795 -1.9e-5,0.256 0.05948,1.5775 -0.1965,2.0895 -0.256018,0.4907 -0.647685,0.049 -0.925,0.049 -0.234684,0 -0.739184,-0.3703 -0.8885,-0.861 -0.14935,-0.512 -0.446517,-0.9555 -0.7665,-0.9555 -0.320016,0 -0.100349,-1.7485 -0.591,-2.558 -0.490682,-0.247 -0.745014,-0.6678 -1.638,-0.575 -0.746679,0.4053 -2.254012,0.5942 -3.022,1.1915 -0.7466772,0.5973 -1.682343,1.0025 -2.557,2.0905 -0.8746746,1.0667 -1.4140071,2.3452 -2.118,3.7105 -0.6400058,1.2373 -0.4096721,2.8528 -0.559,3.4715 -0.1493384,0.6187 -0.224005,1.6533 -0.224,3.104 -5e-6,2.0907 0.1813281,3.52 0.544,4.288 0.3626607,0.7467 1.0453267,1.12 2.048,1.12 2.1333236,0 4.2058218,0.7077 5.5925,-1.127 0.682653,-0.9173 0.956819,-3.5343 1.4475,-4.601 0.490652,-1.0667 0.735985,-1.8773 0.736,-2.432 -1.5e-5,-0.3413 -0.138682,-0.64 -0.416,-0.896 -0.256015,-0.2773 -0.522681,-0.416 -0.8,-0.416 -0.170681,0 -0.405347,0.1173 -0.704,0.352 -0.277347,0.2133 -0.736013,0.32 -1.376,0.32"
         id="path3094"
         inkscape:connector-curvature="0"
         sodipodi:nodetypes="csccccsccccscccscccsccccccscsccccccscsccccscc" />
    </g>
  </g>
</svg>
