<?xml version="1.0" encoding="UTF-8" standalone="no"?>
<!-- Created with Inkscape (http://www.inkscape.org/) -->

<svg
   xmlns:dc="http://purl.org/dc/elements/1.1/"
   xmlns:cc="http://creativecommons.org/ns#"
   xmlns:rdf="http://www.w3.org/1999/02/22-rdf-syntax-ns#"
   xmlns:svg="http://www.w3.org/2000/svg"
   xmlns="http://www.w3.org/2000/svg"
   xmlns:sodipodi="http://sodipodi.sourceforge.net/DTD/sodipodi-0.dtd"
   xmlns:inkscape="http://www.inkscape.org/namespaces/inkscape"
   width="16"
   height="22.5"
   id="svg2"
   version="1.1"
   inkscape:version="0.48.0 r9654"
   sodipodi:docname="countDown2.svg">
  <defs
     id="defs4" />
  <sodipodi:namedview
     id="base"
     pagecolor="#ffffff"
     bordercolor="#666666"
     borderopacity="1.0"
     inkscape:pageopacity="0.0"
     inkscape:pageshadow="2"
     inkscape:zoom="11.2"
     inkscape:cx="40.416485"
     inkscape:cy="20.064714"
     inkscape:document-units="px"
     inkscape:current-layer="layer1"
     showgrid="false"
     inkscape:window-width="1280"
     inkscape:window-height="723"
     inkscape:window-x="0"
     inkscape:window-y="24"
     inkscape:window-maximized="1" />
  <metadata
     id="metadata7">
    <rdf:RDF>
      <cc:Work
         rdf:about="">
        <dc:format>image/svg+xml</dc:format>
        <dc:type
           rdf:resource="http://purl.org/dc/dcmitype/StillImage" />
        <dc:title></dc:title>
      </cc:Work>
    </rdf:RDF>
  </metadata>
  <g
     inkscape:label="Layer 1"
     inkscape:groupmode="layer"
     id="layer1"
     transform="translate(0,-1029.8622)">
    <g
       transform="matrix(0.98526809,0.17101695,-0.17101695,0.98526809,0,0)"
       style="font-size:32px;font-style:normal;font-variant:normal;font-weight:normal;font-stretch:normal;line-height:125%;letter-spacing:0px;word-spacing:0px;fill:#000000;fill-opacity:1;stroke:none;font-family:Purisa;-inkscape-font-specification:Purisa"
       id="text3037">
      <path
         d="m 194.89539,1031.2686 c 0.38398,0.085 0.33609,1.236 0.40011,1.364 0.0853,0.1066 0.12797,0.2986 0.128,0.576 -3e-5,0.3413 -0.18136,0.5333 -0.544,0.576 -0.34136,0.043 -0.88811,0.05 -2.16809,0.1142 -1.28002,0.064 -2.32862,-0.09 -3.75793,0.187 -1.00268,0.192 -2.38609,0.6876 -3.53807,0.837 -1.15201,0.1706 -1.84563,0.6352 -2.37895,0.7206 -0.53335,0.1066 -0.87468,0.2346 -1.024,0.384 -0.17068,0.1493 -0.40534,0.224 -0.704,0.224 -0.34134,0 -0.66134,-0.096 -0.96,-0.288 -0.27734,-0.192 -0.56506,-0.7526 -0.56505,-1.0086 -1e-5,-0.2774 -0.79891,-1.7623 -0.095,-2.6796 0.72532,-0.9387 0.61019,-1.4494 1.20753,-1.9827 0.6153,-1.5197 2.2425,-2.795 4.49484,-4.5921 2.04825,-2.595 3.22004,-4.5876 3.68604,-5.8208 0.466,-1.2332 0.54392,-3.6695 0.13864,-3.9255 -0.38402,-0.256 -1.14763,-0.9119 -2.10761,-0.9119 -2.30401,0 -3.11156,0.4586 -5.43688,2.8053 -1.45067,1.408 -1.29503,3.2566 -1.88927,3.9793 -0.0677,0.082 -2.08186,-1.5153 -2.08185,-2.2406 -1e-5,-0.7467 -0.19306,-1.369 0.36161,-1.6676 0.57599,-0.2774 0.86399,-0.5654 0.864,-0.864 -10e-6,-0.1067 0.0427,-0.224 0.128,-0.352 0.10666,-0.1494 0.25599,-0.2987 0.448,-0.448 0.21333,-0.1707 0.40533,-0.32 0.576,-0.448 0.19199,-0.1494 0.44799,-0.3307 0.768,-0.544 0.31999,-0.2347 0.57599,-0.4267 0.768,-0.576 0.42666,-0.3627 1.59038,-0.6258 2.55039,-0.9884 0.98132,-0.384 2.04799,-0.576 3.2,-0.576 1.94132,0 3.80848,-0.6593 4.3845,0.4069 0.23465,0.4053 0.45887,1.7038 0.45889,2.6638 -2e-5,1.7493 -0.2822,4.7075 -1.40784,6.1626 -0.46935,1.1093 -2.82519,3.4907 -4.08384,5.5387 -2.14759,2.0034 -3.42602,3.5831 -3.70441,4.5531 -0.23468,0.2346 0.16418,0.7475 0.16418,0.8115 -1e-5,0.021 0.0427,0.032 0.128,0.032 0.0213,0 1.85529,-0.9561 2.90064,-1.1481 1.04532,-0.192 1.50911,-0.5105 3.06646,-0.7025 1.57865,-0.192 2.45326,0.1708 3.73328,0.1708"
         id="path3042"
         inkscape:connector-curvature="0"
         sodipodi:nodetypes="ccccsccccsccccczcscscccccccccsccccccsscc" />
    </g>
  </g>
</svg>
