<?xml version="1.0" encoding="UTF-8" standalone="no"?>
<!-- Created with Inkscape (http://www.inkscape.org/) -->

<svg
   xmlns:dc="http://purl.org/dc/elements/1.1/"
   xmlns:cc="http://creativecommons.org/ns#"
   xmlns:rdf="http://www.w3.org/1999/02/22-rdf-syntax-ns#"
   xmlns:svg="http://www.w3.org/2000/svg"
   xmlns="http://www.w3.org/2000/svg"
   xmlns:sodipodi="http://sodipodi.sourceforge.net/DTD/sodipodi-0.dtd"
   xmlns:inkscape="http://www.inkscape.org/namespaces/inkscape"
   width="16"
   height="22.5"
   id="svg2"
   version="1.1"
   inkscape:version="0.48.0 r9654"
   sodipodi:docname="New document 1">
  <defs
     id="defs4" />
  <sodipodi:namedview
     id="base"
     pagecolor="#ffffff"
     bordercolor="#666666"
     borderopacity="1.0"
     inkscape:pageopacity="0.0"
     inkscape:pageshadow="2"
     inkscape:zoom="11.2"
     inkscape:cx="40.416485"
     inkscape:cy="9.3561617"
     inkscape:document-units="px"
     inkscape:current-layer="layer1"
     showgrid="false"
     inkscape:window-width="1280"
     inkscape:window-height="723"
     inkscape:window-x="0"
     inkscape:window-y="24"
     inkscape:window-maximized="1" />
  <metadata
     id="metadata7">
    <rdf:RDF>
      <cc:Work
         rdf:about="">
        <dc:format>image/svg+xml</dc:format>
        <dc:type
           rdf:resource="http://purl.org/dc/dcmitype/StillImage" />
        <dc:title></dc:title>
      </cc:Work>
    </rdf:RDF>
  </metadata>
  <g
     inkscape:label="Layer 1"
     inkscape:groupmode="layer"
     id="layer1"
     transform="translate(0,-1029.8622)">
    <g
       style="font-size:32px;font-style:normal;font-variant:normal;font-weight:normal;font-stretch:normal;line-height:125%;letter-spacing:0px;word-spacing:0px;fill:#000000;fill-opacity:1;stroke:none;font-family:Purisa;-inkscape-font-specification:Purisa"
       id="text2985"
       transform="translate(-2,0.25253814)">
      <path
         d="m 7.7684527,1032.0623 c -1.9909347,0.2837 -2.5922679,1.3481 -4.5258475,1.6856 -0.3748668,-0.1774 -0.6868352,-0.7617 -0.8,-0.992 -0.2346691,0 -0.3520023,-0.1066 -0.352,-0.32 -2.3e-6,-0.1493 0.2781962,-1.0882 0.9608655,-1.3016 0.7039959,-0.2133 1.5155271,-0.4897 2.5608654,-0.7031 1.0453263,-0.2133 2.1955944,-0.2266 3.1982691,-0.4186 1.0239899,-0.192 2.0782578,0.027 2.9102688,-0.1012 0.912802,-0.1533 1.660984,-0.067 2.529731,-0.2595 0.127986,-0.021 0.213319,-0.032 0.256,-0.032 0.213319,0 0.689856,0.2863 0.924538,0.6063 0.255985,0.32 0.131446,0.4817 0.131462,0.7377 -1.6e-5,0.256 1.263985,1.216 -0.208,2.88 -0.527537,0.9833 -2.764254,1.4983 -4.176,2.592 -1.1e-5,0.128 2.351988,0.192 3.056,0.192 0.59732,0 1.290653,0.384 2.08,1.152 0.789318,0.7467 1.279984,1.4934 1.472,2.24 0.08532,0.32 0.127984,0.7254 0.128,1.216 -1.6e-5,1.792 -0.458682,3.4134 -1.376,4.864 -0.746681,1.1734 -3.813346,4.1334 -5.2,4.88 -1.3866767,0.7254 -2.6986754,1.088 -3.9359998,1.088 -1.3866729,0 -4.2720054,-0.4373 -4.656,-1.312 -0.2986714,-0.5973 -0.4480045,-1.2586 -0.448,-1.984 -4.5e-6,-0.8746 0.2026619,-1.312 0.608,-1.312 0.3626611,0 0.7039941,0.2134 1.024,0.64 0.3413268,0.4267 0.5119933,0.8854 0.512,1.376 0.021327,0.3627 2.1066599,0.5867 2.256,0.672 0.1706595,0.085 0.5759925,0.128 1.216,0.128 0.8746576,0 1.5394519,-0.6979 2.4994618,-1.2099 0.959988,-0.5333 3.286046,-3.0052 3.862058,-3.7946 0.511986,-0.704 0.831121,-0.9819 0.831135,-2.4753 -1.4e-5,-1.3226 0.19756,-1.9242 -0.133193,-2.4683 -0.330754,-0.5442 -0.643474,-1.7159 -1.475462,-1.7159 -0.789344,0 -3.461343,0.1174 -4.0159998,0.352 -0.5333425,0.2347 -0.9706754,0.48 -1.312,0.736 -0.3413414,0.2347 -1.1664174,0.6045 -1.4650763,0.6045 -0.3200071,0 -0.2603342,-0.9798 -0.4523273,-1.1718 -0.1920065,-0.192 0.090801,-0.8269 0.090807,-1.1469 0.2679076,-0.793 1.5990502,-0.5181 4.4194504,-3.9688 1.833498,-2.9691 -1.6510167,-2.1679 -2.9950063,-1.9546 z"
         id="path2990"
         inkscape:connector-curvature="0"
         sodipodi:nodetypes="cccccccccsccccscccccsccscccsccczsccscccc" />
    </g>
  </g>
</svg>
