<?xml version="1.0" encoding="UTF-8" standalone="no"?>
<!-- Created with Inkscape (http://www.inkscape.org/) -->

<svg
   xmlns:dc="http://purl.org/dc/elements/1.1/"
   xmlns:cc="http://creativecommons.org/ns#"
   xmlns:rdf="http://www.w3.org/1999/02/22-rdf-syntax-ns#"
   xmlns:svg="http://www.w3.org/2000/svg"
   xmlns="http://www.w3.org/2000/svg"
   xmlns:sodipodi="http://sodipodi.sourceforge.net/DTD/sodipodi-0.dtd"
   xmlns:inkscape="http://www.inkscape.org/namespaces/inkscape"
   width="16"
   height="22.5"
   id="svg2"
   version="1.1"
   inkscape:version="0.48.0 r9654"
   sodipodi:docname="countDown1.svg">
  <defs
     id="defs4" />
  <sodipodi:namedview
     id="base"
     pagecolor="#ffffff"
     bordercolor="#666666"
     borderopacity="1.0"
     inkscape:pageopacity="0.0"
     inkscape:pageshadow="2"
     inkscape:zoom="16"
     inkscape:cx="19.87902"
     inkscape:cy="10.486555"
     inkscape:document-units="px"
     inkscape:current-layer="layer1"
     showgrid="false"
     inkscape:window-width="1280"
     inkscape:window-height="723"
     inkscape:window-x="0"
     inkscape:window-y="24"
     inkscape:window-maximized="1" />
  <metadata
     id="metadata7">
    <rdf:RDF>
      <cc:Work
         rdf:about="">
        <dc:format>image/svg+xml</dc:format>
        <dc:type
           rdf:resource="http://purl.org/dc/dcmitype/StillImage" />
        <dc:title></dc:title>
      </cc:Work>
    </rdf:RDF>
  </metadata>
  <g
     inkscape:label="Layer 1"
     inkscape:groupmode="layer"
     id="layer1"
     transform="translate(0,-1029.8622)">
    <g
       transform="matrix(1.138061,0,0,0.87868753,-1.3125,0.0625)"
       style="font-size:40.13351822px;font-style:normal;font-variant:normal;font-weight:normal;font-stretch:normal;line-height:125%;letter-spacing:0px;word-spacing:0px;fill:#000000;fill-opacity:1;stroke:none;font-family:Purisa;-inkscape-font-specification:Purisa"
       id="text3063">
      <path
         d="m 3.8122308,1181.144 c -0.2140487,0 0.056009,-0.3849 -0.052823,-0.8505 -0.1872924,-0.1605 -0.2809372,-0.388 -0.2809346,-0.6823 1.0775456,-2.3218 1.239769,-2.5443 2.5045818,-4.7183 0.4815947,-0.8562 0.8199422,-1.9172 1.248041,-2.4791 0.4548377,-0.5886 1.2056683,-0.078 1.5535014,-0.078 0.7171905,0.9557 1.5577646,0.6047 1.7450646,2.3171 0.160523,1.4448 -0.300269,4.5458 -0.139724,8.7999 0.160523,4.2274 0.24079,7.7324 0.240801,10.515 -1.1e-5,1.7659 -0.273147,2.9437 -0.353397,3.131 -0.214057,0.4548 -0.6101896,0.028 -0.8777354,0.028 -0.3745897,0 -0.7612461,0.9904 -1.0823043,0.054 -0.3478331,-0.9899 -0.094583,-5.3403 -0.094574,-11.0392 -0.026765,-5.7792 0.00687,-9.4232 -0.2874379,-9.4233 -1.2844376,1.0472 -0.7052764,1.1885 -1.8080048,2.4917 -0.7224079,0.8829 -1.3894864,2.2389 -1.844329,2.2389"
         id="path3068"
         inkscape:connector-curvature="0"
         sodipodi:nodetypes="ccccccccccsccccc" />
    </g>
  </g>
</svg>
