<?xml version="1.0" encoding="UTF-8" standalone="no"?>
<!-- Created with Inkscape (http://www.inkscape.org/) -->

<svg
   xmlns:dc="http://purl.org/dc/elements/1.1/"
   xmlns:cc="http://creativecommons.org/ns#"
   xmlns:rdf="http://www.w3.org/1999/02/22-rdf-syntax-ns#"
   xmlns:svg="http://www.w3.org/2000/svg"
   xmlns="http://www.w3.org/2000/svg"
   xmlns:sodipodi="http://sodipodi.sourceforge.net/DTD/sodipodi-0.dtd"
   xmlns:inkscape="http://www.inkscape.org/namespaces/inkscape"
   width="89"
   height="54"
   id="svg4217"
   version="1.1"
   inkscape:version="0.48.0 r9654"
   sodipodi:docname="New document 32">
  <defs
     id="defs4219" />
  <sodipodi:namedview
     id="base"
     pagecolor="#ffffff"
     bordercolor="#666666"
     borderopacity="1.0"
     inkscape:pageopacity="0.0"
     inkscape:pageshadow="2"
     inkscape:zoom="8"
     inkscape:cx="52.77656"
     inkscape:cy="28.086538"
     inkscape:document-units="px"
     inkscape:current-layer="layer1"
     showgrid="false"
     inkscape:window-width="1280"
     inkscape:window-height="723"
     inkscape:window-x="0"
     inkscape:window-y="24"
     inkscape:window-maximized="1" />
  <metadata
     id="metadata4222">
    <rdf:RDF>
      <cc:Work
         rdf:about="">
        <dc:format>image/svg+xml</dc:format>
        <dc:type
           rdf:resource="http://purl.org/dc/dcmitype/StillImage" />
        <dc:title></dc:title>
      </cc:Work>
    </rdf:RDF>
  </metadata>
  <g
     inkscape:label="Layer 1"
     inkscape:groupmode="layer"
     id="layer1"
     transform="translate(0,-998.36218)">
    <path
       style="fill:#6c8d0b;fill-opacity:1;fill-rule:nonzero;stroke:none"
       d="m 87.491718,1016.259 c 0.810369,5.14 1.528835,10.3912 0,18.3572 -1.596981,8.3209 -6.777317,15.2976 -15.19577,15.2976 l -55.717885,0 c -8.4184629,0 -15.1957795,-6.8228 -15.1957795,-15.2976 l 0,-18.3572 c 0,-8.4749 6.7773166,-15.2976 15.1957795,-15.2976 l 55.717885,0 c 8.418453,0 13.876173,6.9275 15.19577,15.2976 z"
       id="rect2985-0-2-7"
       inkscape:connector-curvature="0"
       sodipodi:nodetypes="sssssssss" />
    <rect
       style="fill:#000000;fill-opacity:1;fill-rule:nonzero;stroke:#000000;stroke-width:0.90000004;stroke-linecap:round;stroke-linejoin:round;stroke-miterlimit:4;stroke-opacity:1;stroke-dasharray:none"
       id="rect3887-3-9"
       width="2.0396821"
       height="11.143571"
       x="999.20544"
       y="-72.98098"
       ry="1.0130519"
       transform="matrix(0,1,-1,0,0,0)" />
    <path
       style="fill:#eaefc2;fill-opacity:1;stroke:#000000;stroke-width:0.40000001;stroke-miterlimit:4;stroke-opacity:1;stroke-dasharray:none"
       d="m 87.735003,1026.0483 c 0,0 0.402944,4.8677 -0.402933,8.7888 -0.805876,3.9213 -3.297698,8.4534 -3.297698,8.4534 0,0 -2.115093,2.7307 -2.383722,2.7758 0.27958,2.2448 5.40882,-12.1008 0.308894,-18.3053 -1.611753,-1.1718 0,-0.4958 0,-0.4958 l -0.223851,-2.9296 c -0.110907,-2.0421 0.112111,1.7707 0.08956,-0.3374 1.12185,1.3344 4.589064,-7.57 1.119273,-17.1953 -1.489001,-4.1305 3.8503,7.4368 3.8503,7.4368 0,0 0.671572,4.6423 0.71634,4.9578 0.04473,0.3154 0.22385,6.8507 0.22385,6.8507 z"
       id="path3957-5-0"
       inkscape:connector-curvature="0"
       sodipodi:nodetypes="csccccccscccc" />
    <path
       style="fill:none;stroke:#000000;stroke-width:1.60000002;stroke-miterlimit:4;stroke-opacity:1"
       d="m 87.195008,1016.2772 c 0.810369,5.14 1.528835,10.3912 0,18.3572 -1.596981,8.321 -6.777317,15.2975 -15.19577,15.2975 l -55.717884,0 c -8.4184631,0 -15.1957797,-6.8227 -15.1957797,-15.2975 l 0,-18.3572 c 0,-8.4749 6.7773166,-15.2976 15.1957797,-15.2976 l 55.717884,0 c 8.418453,0 13.876173,6.9275 15.19577,15.2976 z"
       id="rect2985-2-6"
       inkscape:connector-curvature="0"
       sodipodi:nodetypes="sssssssss" />
    <rect
       style="fill:#eaefc2;fill-opacity:1;fill-rule:nonzero;stroke:#000000;stroke-width:0.89999998;stroke-miterlimit:4;stroke-opacity:1;stroke-dasharray:none"
       id="rect2985-8-1-6-5"
       width="44.584423"
       height="77.580338"
       x="1003.1635"
       y="-82.297379"
       ry="13.690642"
       transform="matrix(0,1,-1,0,0,0)" />
    <path
       style="fill:#c7daf5;fill-opacity:1;fill-rule:nonzero;stroke:#000000;stroke-width:0.90000004;stroke-linecap:round;stroke-linejoin:round;stroke-miterlimit:4;stroke-opacity:1"
       d="m 80.392519,1012.527 c 0.984307,6.9233 2.664516,12.708 0,25.6004 -1.128299,5.4592 -2.117841,0 -5.193433,0 -3.075582,0 -3.847361,3.2752 -3.760763,0.1802 l 0.71634,-25.6003 c 0.08655,-3.095 -0.03119,0 3.044423,0 3.075592,0 4.476512,-5.2228 5.193433,-0.1803 z"
       id="rect3773-9-2"
       inkscape:connector-curvature="0"
       sodipodi:nodetypes="sssssss" />
    <path
       style="fill:#c7daf5;fill-opacity:1;fill-rule:nonzero;stroke:#000000;stroke-width:0.9000001;stroke-linecap:round;stroke-linejoin:round;stroke-miterlimit:4;stroke-opacity:1"
       d="m 76.861002,1009.9195 -4.183032,5.1687 c -1.192773,1.4738 -3.399098,1.746 -4.946918,0.6102 -1.547799,-1.1357 -1.833617,-3.2366 -0.640844,-4.7104 l 4.183042,-5.1687 c 1.192774,-1.4738 3.399098,-1.746 4.946898,-0.6102 1.54781,1.1358 1.833638,3.2366 0.640854,4.7104 z"
       id="rect3777-2-1"
       inkscape:connector-curvature="0" />
    <path
       style="fill:#c7daf5;fill-opacity:1;fill-rule:nonzero;stroke:#000000;stroke-width:0.9000001;stroke-linecap:round;stroke-linejoin:round;stroke-miterlimit:4;stroke-opacity:1"
       d="m 67.269301,1040.1171 4.183032,5.1687 c 1.192773,1.4738 3.399098,1.746 4.946918,0.6102 1.547799,-1.1358 1.833617,-3.2367 0.640844,-4.7105 l -4.183042,-5.1687 c -1.192774,-1.4738 -3.399098,-1.746 -4.946898,-0.6102 -1.54781,1.1358 -1.833638,3.2367 -0.640854,4.7105 z"
       id="rect3777-3-0-6"
       inkscape:connector-curvature="0" />
    <path
       style="fill:#c7daf5;fill-opacity:1;fill-rule:nonzero;stroke:#000000;stroke-width:0.90000015;stroke-linecap:round;stroke-linejoin:round;stroke-miterlimit:4;stroke-opacity:1"
       d="m 65.233535,1006.3517 -0.17788,6.6663 c -0.05075,1.9009 -3.011228,3.4927 -6.637957,3.5691 -3.62669,0.077 -6.505579,-1.3925 -6.454874,-3.2933 l 0.177879,-6.6664 c 0.05074,-1.9008 3.011218,-3.4925 6.637908,-3.569 3.626699,-0.077 6.505589,1.3925 6.454883,3.2933 z"
       id="rect3777-37-11-1"
       inkscape:connector-curvature="0" />
    <path
       style="fill:#c7daf5;fill-opacity:1;fill-rule:nonzero;stroke:#000000;stroke-width:0.90000015;stroke-linecap:round;stroke-linejoin:round;stroke-miterlimit:4;stroke-opacity:1"
       d="m 50.673895,1006.3517 -0.177879,6.6663 c -0.05074,1.9009 -3.011228,3.4927 -6.637958,3.5691 -3.626689,0.077 -6.505579,-1.3925 -6.454874,-3.2933 l 0.17788,-6.6664 c 0.05074,-1.9008 3.011218,-3.4926 6.637907,-3.569 3.6267,-0.077 6.505589,1.3925 6.454884,3.2933 z"
       id="rect3777-37-4-6-8"
       inkscape:connector-curvature="0" />
    <path
       style="fill:#c7daf5;fill-opacity:1;fill-rule:nonzero;stroke:#000000;stroke-width:0.90000015;stroke-linecap:round;stroke-linejoin:round;stroke-miterlimit:4;stroke-opacity:1"
       d="m 36.347172,1006.1714 -0.177879,6.6663 c -0.05075,1.9009 -3.011228,3.4927 -6.637958,3.569 -3.626689,0.077 -6.505579,-1.3924 -6.454873,-3.2932 l 0.177879,-6.6664 c 0.05074,-1.9008 3.011218,-3.4926 6.637907,-3.569 3.6267,-0.077 6.505589,1.3924 6.454884,3.2933 z"
       id="rect3777-37-7-2-2"
       inkscape:connector-curvature="0" />
    <path
       style="fill:#c7daf5;fill-opacity:1;fill-rule:nonzero;stroke:#000000;stroke-width:0.90000015;stroke-linecap:round;stroke-linejoin:round;stroke-miterlimit:4;stroke-opacity:1"
       d="m 65.707722,1037.3606 -0.177879,6.6663 c -0.05075,1.9009 -3.011229,3.4926 -6.637958,3.569 -3.62669,0.077 -6.505579,-1.3924 -6.454874,-3.2933 l 0.177879,-6.6663 c 0.05074,-1.9008 3.011218,-3.4927 6.637908,-3.569 3.626699,-0.077 6.505589,1.3924 6.454884,3.2933 z"
       id="rect3777-37-2-1-0"
       inkscape:connector-curvature="0" />
    <path
       style="fill:#c7daf5;fill-opacity:1;fill-rule:nonzero;stroke:#000000;stroke-width:0.90000015;stroke-linecap:round;stroke-linejoin:round;stroke-miterlimit:4;stroke-opacity:1"
       d="m 50.664669,1037.3606 -0.177879,6.6663 c -0.05075,1.9009 -3.011229,3.4927 -6.637958,3.569 -3.62669,0.077 -6.505579,-1.3924 -6.454874,-3.2933 l 0.177879,-6.6663 c 0.05074,-1.9008 3.011218,-3.4927 6.637908,-3.569 3.626699,-0.077 6.505589,1.3924 6.454884,3.2933 z"
       id="rect3777-37-0-4-8"
       inkscape:connector-curvature="0" />
    <path
       style="fill:#c7daf5;fill-opacity:1;fill-rule:nonzero;stroke:#000000;stroke-width:0.90000015;stroke-linecap:round;stroke-linejoin:round;stroke-miterlimit:4;stroke-opacity:1"
       d="m 36.694877,1037.3606 -0.177879,6.6663 c -0.05074,1.9009 -3.011228,3.4927 -6.637958,3.569 -3.626689,0.077 -6.505578,-1.3924 -6.454873,-3.2933 l 0.177879,-6.6663 c 0.05074,-1.9008 3.011218,-3.4927 6.637907,-3.569 3.6267,-0.077 6.505589,1.3924 6.454884,3.2933 z"
       id="rect3777-37-1-7-5"
       inkscape:connector-curvature="0" />
    <path
       style="fill:#c7daf5;fill-opacity:1;fill-rule:nonzero;stroke:#000000;stroke-width:0.90000015;stroke-linecap:round;stroke-linejoin:round;stroke-miterlimit:4;stroke-opacity:1"
       d="m 18.080614,1018.2676 -0.17788,12.1731 c -0.05074,3.4709 -3.011228,6.3776 -6.637957,6.5172 -3.6266895,0.1393 -6.5055788,-2.5427 -6.4548737,-6.0138 l 0.1778791,-12.173 c 0.050745,-3.471 3.011218,-6.3777 6.6379076,-6.5172 3.626699,-0.1393 6.505589,2.5426 6.454883,6.0137 z"
       id="rect3777-37-9-2-2"
       inkscape:connector-curvature="0" />
    <rect
       style="fill:#eaefc2;fill-opacity:1;fill-rule:nonzero;stroke:#000000;stroke-width:0.90000004;stroke-miterlimit:4;stroke-opacity:1;stroke-dasharray:none"
       id="rect2985-8-4-9"
       width="39.217068"
       height="69.222664"
       x="1005.7186"
       y="-77.038124"
       ry="12.215759"
       transform="matrix(0,1,-1,0,0,0)" />
    <g
       id="g3882-4-8"
       transform="matrix(0,0.5880461,-0.58413147,0,320.25783,847.41581)"
       style="fill:none">
      <path
         sodipodi:nodetypes="sssss"
         inkscape:connector-curvature="0"
         id="path3875-9-3"
         d="m 311.07143,398.4336 c 3.43446,0.89991 -2.84344,4.64286 -7.23214,4.64286 -4.38869,0 -10.94819,-4.34021 -7.41071,-4.64286 3.92858,-0.33611 3.73631,-0.53571 8.125,-0.53571 4.3887,0 4.55357,0.021 6.51785,0.53571 z"
         style="fill:none;stroke:#000000;stroke-width:1.53561211;stroke-linecap:round;stroke-linejoin:round;stroke-miterlimit:4;stroke-opacity:1" />
      <path
         sodipodi:nodetypes="ccc"
         inkscape:connector-curvature="0"
         id="path3878-8-1"
         d="m 300.71429,402.40682 3.57143,-3.25893 3.03571,3.03572"
         style="fill:none;stroke:#000000;stroke-width:1.70623553px;stroke-linecap:round;stroke-linejoin:round;stroke-opacity:1" />
      <path
         inkscape:connector-curvature="0"
         id="path3880-1-0"
         d="m 297.27679,400.57647 2.90178,-2.41072 3.16965,-0.22321 0.9375,1.29464 0.84821,-1.29464 2.90179,0 2.72321,2.63393"
         style="fill:none;stroke:#000000;stroke-width:1.70623553px;stroke-linecap:round;stroke-linejoin:round;stroke-opacity:1" />
    </g>
    <rect
       style="fill:#000000;fill-opacity:1;fill-rule:nonzero;stroke:#000000;stroke-width:0.90000004;stroke-linecap:round;stroke-linejoin:round;stroke-miterlimit:4;stroke-opacity:1;stroke-dasharray:none"
       id="rect3887-0-8-3"
       width="2.0396821"
       height="11.143571"
       x="999.07922"
       y="-25.921095"
       ry="1.0130519"
       transform="matrix(0,1,-1,0,0,0)" />
    <rect
       style="fill:#000000;fill-opacity:1;fill-rule:nonzero;stroke:#000000;stroke-width:0.90000004;stroke-linecap:round;stroke-linejoin:round;stroke-miterlimit:4;stroke-opacity:1;stroke-dasharray:none"
       id="rect3887-0-4-9-0"
       width="2.0396821"
       height="11.143571"
       x="1049.677"
       y="-25.905424"
       ry="1.0130519"
       transform="matrix(0,1,-1,0,0,0)" />
    <rect
       style="fill:#000000;fill-opacity:1;fill-rule:nonzero;stroke:#000000;stroke-width:0.90000004;stroke-linecap:round;stroke-linejoin:round;stroke-miterlimit:4;stroke-opacity:1;stroke-dasharray:none"
       id="rect3887-0-4-6-8-2"
       width="2.0396821"
       height="11.143571"
       x="1049.677"
       y="-73.012321"
       ry="1.0130519"
       transform="matrix(0,1,-1,0,0,0)" />
    <g
       id="g5609"
       transform="matrix(0,0.52476002,-0.52126668,0,413.84774,808.52803)">
      <path
         inkscape:connector-curvature="0"
         id="path5603"
         d="m 403.36924,768.75798 c 0,0 3.82461,0.21855 3.97031,0.1457 0.1457,-0.0729 1.7484,-1.23844 1.7484,-1.23844 0,0 1.12917,-3.13254 1.12917,-3.35109 0,-0.21855 0.25497,-7.13928 0.25497,-7.13928 l 3.13254,-3.93389 2.3312,-1.89409 5.17233,-0.80135 7.79493,0.5828 2.40404,1.96694 1.34772,4.18886 0.21855,6.81146 -1.38415,1.31129 -2.18549,0.5828 -0.54637,1.3113 0.54637,1.34772 2.03979,0.47352 5.39089,-0.0728 2.11264,-4.95378 0.83777,-8.487 0.21855,-8.45058 1.85767,0 -0.21855,-1.85767 -2.98684,-4.37098 -6.3015,-2.87757 -5.86441,-2.51332 -3.27824,-3.49679 -2.69544,-7.35782 -1.3113,-10.85462 -0.80135,-13.58648 -0.83777,-13.14939 -2.58617,-8.81482 -3.82461,-12.53017 -3.67891,-7.53995 -5.53659,-5.90083 -2.47689,0.21855 1.457,11.87451 -5.24519,3.64249 -8.3413,8.81483 -5.31803,7.3214 -0.5828,4.29814 1.78482,1.78482 3.27824,0.83777 7.13928,-1.3113 6.95715,-3.49679 4.73524,-2.47689 2.14907,0.76492 2.18549,3.56964 0.40067,3.89746 0.61923,17.33825 -0.10928,18.54027 -2.22192,17.48395 -2.36761,15.33488 c 0,0 -1.52985,3.24181 -1.82125,3.24181 -0.2914,0 -2.54974,0 -2.80472,0 -0.25497,0 -1.20202,2.6226 -1.20202,2.6226 l 1.42057,1.49342 z"
         style="fill:#e3910e;fill-opacity:1;stroke:none" />
      <path
         inkscape:connector-curvature="0"
         id="path5605"
         d="m 411.53396,666.9451 2.62714,9.0147 2.13777,7.21176 1.69991,8.06172 0.20605,8.93743 0.43786,9.73588 0.84996,8.03596 2.34382,10.4313 1.59689,-1.4166 c 0,0 0.25756,-1.57113 0.10303,-1.57113 -0.15454,0 -2.36958,-0.0515 -2.36958,-0.0515 l -0.8242,-4.40432 c 0,0 1.39084,-1.75143 1.44235,-1.85445 0.0515,-0.10303 0.15454,-1.2363 0.15454,-1.2363 0,0 -2.54988,-1.0045 -2.54988,-1.18479 0,-0.1803 0,-3.27105 -0.0257,-3.39983 -0.0258,-0.12879 1.77718,-2.03475 1.77718,-2.03475 l -2.29231,-1.72567 -0.0773,-3.39983 2.57563,-2.62714 -2.98773,-1.54538 0.30908,-2.70441 2.16353,-2.00899 c 0,0 -2.67866,-1.57113 -2.67866,-1.77718 0,-0.20606 0.20605,-1.72568 0.20605,-1.72568 l 1.88021,-2.83319 c 0,0 -0.0515,-1.2363 -0.15454,-1.2363 -0.10302,0 -2.36957,-0.20605 -2.36957,-0.20605 l -0.97874,-6.49058 1.44235,-2.26656 -1.88021,-0.43785 -0.97874,-1.08177 -0.15454,-2.39533 1.93172,-2.13777 -1.75142,-0.77269 -1.90597,0.30907 -0.46361,-3.73466 1.93172,-2.93622 z"
         style="fill:#0b696e;fill-opacity:1;stroke:none" />
      <path
         inkscape:connector-curvature="0"
         id="path5607"
         d="m 385.75191,685.5669 9.06622,-6.69664 1.28781,-0.10302 1.2363,2.00899 -0.87571,3.01348 -5.07399,4.27555 c 0,0 -3.32256,0.2318 -3.50286,0.18029 -0.18029,-0.0515 -1.59689,-1.2363 -1.59689,-1.2363 z"
         style="fill:#f5e5be;fill-opacity:1;stroke:none" />
      <path
         sodipodi:nodetypes="cccsscccsscsssccsssscssssscsscscsccssscsscsccccsscccssccscsssscsccccsssscscccccssssssccccssscssscsccssccscccccccssscssscscsscssssccsssssssssscccscccccsscssscsssssccccssssscssccssscsscccsscssccscsssccccscssscsssssscscscsssscssssssscsccssssssssscssssscccscccsssscscsssccccsccccsccccccccsccccssccsssccscccsccscsscccsccsscscsccsccccscccsccscsssssssccssscccccsccccsccscccss"
         inkscape:connector-curvature="0"
         id="path2987-6"
         d="m 406.82519,769.40028 -2.41863,0.0896 c -1.07823,-0.0727 -2.15808,-0.15663 -3.31089,-0.75136 -0.46728,0.11678 -1.83077,-1.99225 -1.742,-2.41664 0.1726,-0.82529 0.97586,-2.62224 1.65596,-3.01904 0.27645,-0.16123 0.57456,-0.18524 1.32801,-0.10698 0.53434,0.0553 1.05656,0.12678 1.1605,0.15827 0.23797,0.072 1.01677,-0.95357 1.48467,-1.95523 0.19611,-0.41987 0.44887,-1.29424 0.56168,-1.94303 0.11281,-0.64885 0.35732,-1.86672 0.54334,-2.7064 0.41649,-1.88005 0.75961,-4.22856 0.763,-5.22242 0.003,-0.76695 0.25765,-2.76315 0.61834,-4.83981 0.37731,-2.17239 0.75731,-4.91261 0.9046,-6.52314 0.0803,-0.87783 0.26404,-2.47044 0.40837,-3.5391 0.14433,-1.06866 0.30284,-2.41149 0.35225,-2.98397 0.0494,-0.57254 0.11184,-1.29078 0.13873,-1.59607 0.0455,-0.51666 0.24196,-3.0856 0.43578,-5.6991 0.18514,-2.4966 0.12652,-18.40269 -0.0793,-21.50363 -0.1307,-1.96949 -0.18921,-4.70512 -0.16486,-7.7065 0.0542,-6.67971 -0.26311,-8.97843 -1.48434,-10.75251 -0.84375,-1.22573 -1.59856,-1.78225 -2.41146,-1.77797 -0.90509,0.006 -2.85114,0.92654 -5.45198,2.58258 -1.72604,1.09901 -3.74676,2.02832 -5.78243,2.65938 -1.09438,0.33923 -2.27083,0.71938 -2.61433,0.84471 -0.34351,0.12533 -1.03051,0.31597 -1.52668,0.42364 -0.49617,0.10767 -1.37055,0.29824 -1.94305,0.42351 -1.4054,0.30755 -3.50387,0.29919 -4.23308,-0.017 -1.48792,-0.64495 -1.78754,-0.82101 -2.30535,-1.35458 -0.68843,-0.70938 -0.93624,-1.28381 -1.09366,-2.53525 -0.1636,-1.30065 0.0616,-2.21022 0.9705,-3.92031 0.81094,-1.52662 2.07163,-3.50485 2.23308,-3.50485 0.0587,0 0.1481,-0.13011 0.19858,-0.28919 0.0505,-0.15903 0.59523,-0.81454 1.21053,-1.45666 0.61531,-0.64213 1.2738,-1.40198 1.4633,-1.68854 0.18952,-0.28661 0.53824,-0.72678 0.77496,-0.9782 0.23672,-0.25142 0.80586,-0.94955 1.26475,-1.55139 1.46905,-1.92675 2.7325,-3.36461 4.37124,-4.9747 1.25882,-1.23679 1.92262,-1.76276 3.12501,-2.47617 1.95263,-1.1586 2.52051,-1.53365 3.1378,-2.07251 0.27545,-0.24048 0.58759,-0.46613 0.69369,-0.50145 0.16201,-0.0541 0.15304,-0.26229 -0.0561,-1.30191 -0.13693,-0.68072 -0.30615,-1.89344 -0.37606,-2.69496 -0.0699,-0.80147 -0.19046,-1.70708 -0.26792,-2.01243 -0.0775,-0.30534 -0.14231,-0.83622 -0.14414,-1.17978 -0.002,-0.3435 -0.0959,-1.06174 -0.20908,-1.59607 -0.11319,-0.53433 -0.20686,-1.41832 -0.20818,-1.96453 l -0.003,-0.99298 0.65925,-0.39492 c 1.17561,-0.70409 2.66035,-0.45462 3.97878,0.66865 1.87074,1.59375 3.86417,3.99028 5.06086,6.08416 0.68846,1.20461 2.65409,5.24548 3.07163,6.31458 l 0.37931,0.97111 1.23198,0.1709 c 1.6997,0.23577 2.07205,0.42684 2.18297,1.12051 0.075,0.46921 0.004,0.71177 -0.4784,1.6424 -0.58418,1.12604 -1.02952,1.62228 -1.35133,1.50574 -0.24046,-0.087 -0.15362,0.48273 0.28593,1.87616 l 0.32835,1.04087 1.4909,-0.0515 c 1.74129,-0.0597 2.03513,0.0769 2.03513,0.94754 0,0.82956 -1.30696,2.50407 -1.95441,2.50407 -0.35501,0 -0.36943,0.0251 -0.26088,0.45105 0.35018,1.37469 0.5868,2.13172 0.70418,2.25284 0.0726,0.0749 0.56412,0.1374 1.0922,0.13878 0.52808,0 1.028,0.0703 1.11094,0.15324 0.0829,0.083 0.18709,0.37449 0.23144,0.64791 0.0935,0.57619 -0.47018,1.84988 -1.07221,2.42267 l -0.35692,0.33954 0.24976,1.15175 c 0.13735,0.63339 0.31358,1.31958 0.3916,1.5248 0.078,0.20522 0.14188,0.55922 0.14188,0.78669 0,0.22741 0.0993,0.80894 0.22076,1.29229 l 0.22075,0.8789 1.11839,0.0647 c 0.87822,0.0509 1.15867,0.1198 1.30593,0.32119 0.30174,0.41271 0.22324,1.44271 -0.16359,2.14649 -0.18881,0.3435 -0.53652,1.01504 -0.77267,1.4923 -0.23617,0.47732 -0.57956,0.98594 -0.76311,1.13032 -0.33904,0.26669 -0.44557,0.87236 -0.21684,1.23277 0.062,0.0977 0.60104,0.38982 1.19794,0.64935 1.56624,0.68084 1.67423,0.99462 0.71946,2.09011 -0.33148,0.3804 -0.768,0.94138 -0.97004,1.24673 -0.20204,0.30535 -0.46622,0.69102 -0.58706,0.85708 -0.16429,0.22578 -0.19587,0.46104 -0.12517,0.93252 0.0908,0.60579 0.12265,0.64124 0.80811,0.90115 1.3022,0.49378 2.03948,0.8628 1.96492,0.98349 -0.0405,0.0656 -0.0149,0.27385 0.057,0.46286 0.11067,0.29108 0.0589,0.42427 -0.33841,0.87091 -0.25799,0.28995 -0.58178,0.74949 -0.71952,1.02114 -0.13775,0.27166 -0.51589,0.75319 -0.8403,1.07004 -0.57706,0.56362 -0.5895,0.59524 -0.57344,1.45729 0.029,1.55735 0.0753,1.64409 1.09389,2.05007 l 0.90214,0.3596 0.0422,0.65708 c 0.0354,0.5508 -0.0302,0.76387 -0.40534,1.31762 -0.24617,0.36324 -0.65003,0.88883 -0.89747,1.16785 -0.44647,0.50353 -0.44934,0.51603 -0.38157,1.66546 0.0376,0.63697 0.0909,1.23183 0.11848,1.3219 0.0276,0.0901 0.35049,0.20509 0.71753,0.25557 1.30598,0.17964 1.69599,0.33407 1.9155,0.75859 0.11501,0.22238 0.20911,0.53489 0.20911,0.69436 0,0.50686 -0.52945,1.35244 -1.34596,2.14963 l -0.7915,0.77274 0.24117,1.21121 c 0.13266,0.66613 0.30755,1.50789 0.38864,1.87043 l 0.14745,0.65929 0.85358,0 c 0.53454,1.2e-4 1.03518,0.0909 1.33936,0.24287 0.41961,0.20962 0.49137,0.31892 0.52698,0.80265 0.0328,0.44508 -0.0468,0.68147 -0.38725,1.1515 -0.48579,0.67066 -0.68832,0.78386 -1.18095,0.66023 -0.47289,-0.11867 -0.46394,-0.68022 0.018,-1.12686 0.38963,-0.36104 0.40087,-0.34199 -0.32993,-0.55985 -0.42923,-0.12803 -0.56003,0.0798 -0.42605,0.67663 0.38811,1.7292 1.36218,4.17199 2.10075,5.26843 0.60277,0.89474 2.04686,2.41978 2.67091,2.82061 0.22437,0.14412 0.7657,0.53143 1.20297,0.86079 1.22931,0.92585 2.86512,1.63504 5.79745,2.51331 2.4827,0.74358 4.01407,1.44315 5.08139,2.32117 0.98954,0.81409 2.09171,2.12179 2.43699,2.89144 0.10144,0.22609 0.32288,0.56086 0.49207,0.74389 0.31914,0.3452 1.0726,1.58972 1.40141,2.31469 0.67803,1.495 1.1832,3.25293 1.55543,5.4128 0.2107,1.22259 0.20086,1.20908 0.68168,0.93359 l 0.41821,-0.23967 0.44402,0.48581 c 0.66447,0.72691 1.36774,1.88671 1.36774,2.2556 0,0.1792 -0.0781,0.40428 -0.17349,0.50014 -0.0954,0.0959 -0.17349,0.33954 -0.17349,0.54149 0,0.25406 -0.11534,0.43238 -0.37418,0.57864 -0.34991,0.19774 -0.39604,0.19089 -0.71078,-0.10478 -0.18512,-0.17391 -0.45251,-0.53143 -0.59421,-0.79454 -0.14168,-0.26311 -0.29931,-0.47839 -0.35029,-0.47839 -0.051,0 -0.0891,0.38379 -0.0847,0.85281 0.009,0.929 -0.19397,1.22907 -0.83042,1.22907 -0.42653,0 -0.59458,-0.4584 -0.59458,-1.62203 0,-0.50045 -0.0983,-1.57194 -0.21843,-2.38101 -0.20337,-1.36967 -0.29026,-1.61015 -1.26015,-3.48756 -1.09169,-2.11324 -1.40813,-2.58566 -1.60204,-2.39175 -0.0644,0.0644 -0.13802,2.20501 -0.16361,4.75685 -0.0256,2.55184 -0.0833,4.92078 -0.12815,5.26428 -0.0449,0.3435 -0.11712,1.374 -0.16053,2.29005 -0.0434,0.91598 -0.13739,2.19634 -0.20888,2.84512 -0.12317,1.11813 -0.57176,2.69044 -0.84935,2.97706 -0.0702,0.0725 -0.1277,0.21999 -0.1277,0.32772 0,0.16393 -0.96202,2.2822 -1.56516,3.1594 -0.93638,0.54049 -3.48016,0.27128 -5.53232,0.29359 -1.32388,0.11408 -2.05152,-0.20233 -2.98379,-0.37103 l -0.33748,-0.35921 0,-7e-5 c -0.26909,-0.28643 -0.33748,-0.50705 -0.33748,-1.08883 0,-0.59718 0.0919,-0.87846 0.50672,-1.55019 0.60608,-0.98148 1.07203,-1.28576 2.21698,-1.44761 0.99567,-0.14073 1.22927,-0.32326 1.35606,-1.05954 0.14275,-0.82893 -0.0966,-5.94877 -0.33947,-7.26275 -0.27446,-1.48456 -0.88859,-2.78019 -1.74921,-3.69014 -0.54883,-0.58027 -0.80321,-0.73873 -1.40027,-0.87192 -3.09794,-0.69115 -7.53797,-0.90662 -10.14381,-0.49234 -2.16274,0.34382 -3.30894,0.93773 -4.95049,2.56504 -0.85589,0.84841 -1.47183,1.59921 -1.7555,2.13977 -0.85198,1.62347 -0.91199,1.94755 -1.02825,5.55209 -0.10058,3.11822 -0.1308,3.39346 -0.4724,4.30096 -0.42449,1.12774 -0.89902,1.97483 -1.47176,2.62714 -0.22401,0.25513 0.49789,-0.44049 -1.07094,0.72742 -0.25859,0.1665 -1.39285,0.1506 -1.0244,0.13709 z m 29.01566,-0.95847 c 0.29105,-0.15098 0.84302,-0.94018 1.67876,-2.40036 0.13326,-0.23282 0.4132,-0.9185 0.62208,-1.52366 0.32496,-0.94151 0.39826,-1.45132 0.50791,-3.53213 0.0705,-1.33755 0.1887,-2.77912 0.26271,-3.20358 0.074,-0.4244 0.13459,-2.87988 0.13459,-5.45655 0,-3.19076 0.0496,-4.78162 0.15575,-4.98809 0.28126,-0.54747 0.84714,-1.05138 1.28634,-1.14547 0.74301,-0.15921 0.81719,0.0859 -0.73088,-2.41476 -1.23482,-1.99469 -2.28726,-2.96014 -3.86376,-3.54425 -0.51796,-0.19196 -1.06665,-0.40277 -1.21932,-0.46852 -0.15267,-0.0657 -0.80865,-0.24689 -1.45776,-0.40252 -2.54724,-0.61076 -5.55102,-2.03983 -7.33955,-3.49177 -1.06048,-0.86086 -3.0401,-2.9193 -3.52315,-3.66331 -0.25602,-0.39435 -0.53311,-0.93559 -0.61575,-1.20272 -0.0826,-0.2672 -0.31355,-0.92296 -0.51315,-1.45729 -1.33401,-3.57103 -2.60972,-10.58896 -2.86297,-15.74978 -0.0842,-1.71593 -0.21572,-3.19535 -0.29224,-3.28755 -0.08,-0.0964 -0.0998,-0.43037 -0.0465,-0.786 0.097,-0.64697 -0.0739,-4.68042 -0.4215,-9.94696 -0.0378,-0.57255 -0.13131,-2.5399 -0.20782,-4.37193 -0.2096,-5.01833 -0.42887,-6.63187 -1.49371,-10.99154 -0.7047,-2.88522 -0.81825,-3.22741 -1.09383,-3.29661 -0.39061,-0.098 -0.51987,-0.49768 -0.30995,-0.95841 0.13061,-0.28668 0.11901,-0.50585 -0.0578,-1.0916 -0.12169,-0.40309 -0.40948,-1.35747 -0.63956,-2.12078 -0.23008,-0.76337 -0.5511,-1.76264 -0.71337,-2.22066 -0.16229,-0.45796 -0.53273,-1.64466 -0.82321,-2.63701 -1.05293,-3.59693 -1.31008,-4.29342 -1.63936,-4.44 -0.39045,-0.17386 -0.50741,-0.52993 -0.28896,-0.87972 0.23725,-0.37989 -0.14731,-1.40618 -1.75103,-4.67306 -1.51472,-3.08561 -2.25702,-4.2652 -3.75638,-5.96919 -2.33134,-2.64958 -3.19812,-3.31679 -4.20035,-3.23344 l -0.5107,0.0427 0.029,0.97154 c 0.0377,1.26257 0.2729,3.40837 0.44551,4.06413 0.0747,0.28373 0.17375,1.07802 0.22014,1.76503 0.10926,1.61788 0.45875,3.77084 0.69975,4.31064 0.33557,0.75168 -0.0316,1.44912 -0.76292,1.44912 -0.19958,0 -0.84435,0.3259 -1.46546,0.74068 -0.60999,0.40736 -1.54939,0.97419 -2.08755,1.25948 -1.78823,0.94823 -4.00907,3.11094 -6.97345,6.7909 -0.35917,0.44583 -1.09244,1.35144 -1.62952,2.01242 -0.53706,0.66098 -1.10878,1.39035 -1.27045,1.62084 -0.16168,0.23048 -0.52439,0.66764 -0.80602,0.97154 -1.20719,1.30248 -1.99377,2.27566 -2.52183,3.12005 -1.80917,2.89302 -2.27781,4.27048 -1.94062,5.70401 0.23012,0.9784 0.78982,1.71983 1.60611,2.12757 0.88634,0.44269 1.29249,0.52063 2.68267,0.51472 1.49294,-0.006 3.5592,-0.45193 6.42204,-1.38519 1.1468,-0.37386 2.30222,-0.72723 2.5676,-0.78531 0.74508,-0.16311 3.25238,-1.45371 4.71559,-2.42726 1.23523,-0.82183 3.61562,-2.03977 4.46852,-2.28628 0.51436,-0.14866 0.97505,-0.19492 1.3185,-0.13238 2.32906,0.42408 4.35761,3.08328 4.75572,6.23413 0.27859,2.20501 0.28318,2.27365 0.26942,4.02491 -0.0373,4.74704 0.0182,8.15559 0.16844,10.3398 0.22034,3.2027 0.2193,19.03412 -0.001,22.48391 -0.24571,3.83948 -0.55451,7.39361 -0.7778,8.9519 -0.10938,0.76331 -0.26337,2.13738 -0.34218,3.05336 -0.22244,2.58509 -0.55558,5.23147 -0.92311,7.33302 -0.35313,2.01927 -0.54816,3.55249 -0.74438,5.85197 -0.19358,2.26868 -0.40488,3.83829 -0.62588,4.64943 -0.11439,0.41987 -0.33922,1.57527 -0.49963,2.56762 -0.24095,1.49066 -0.39611,2.02141 -0.89255,3.05336 -0.66285,1.37784 -1.74381,2.81451 -2.32999,3.09673 -0.42053,0.20245 -0.92903,0.10647 -0.92903,-0.1753 0,-0.20076 -0.41957,-0.34897 -0.99614,-0.35193 -0.2375,0 -0.47525,0.12986 -0.65878,0.36318 -0.33995,0.43219 -0.61942,1.3745 -0.47922,1.61587 0.3391,0.58392 0.98769,1.25753 1.42132,1.4762 1.10325,0.55633 3.24609,0.67343 4.84553,0.26487 0.65542,-0.16744 1.14053,-0.65048 1.56489,-1.55829 0.61237,-1.30996 0.70934,-1.89061 0.77857,-4.66194 0.0829,-3.32087 0.27762,-4.39757 1.09635,-6.06354 0.5678,-1.15533 0.77962,-1.42133 2.25217,-2.82796 1.73153,-1.65396 2.40646,-2.06371 4.29664,-2.60854 2.16744,-0.62477 3.72276,-0.74036 6.80893,-0.50604 1.427,0.10836 2.84436,0.23206 3.1497,0.27492 2.58327,0.36255 3.24989,0.62459 4.17517,1.64127 1.89758,2.08521 2.31093,3.68738 2.3345,9.04901 0.0178,4.04741 -0.14714,4.52618 -1.65205,4.79557 -1.62404,0.29064 -1.80012,0.36915 -2.12465,0.94653 -0.57345,1.02032 -0.27919,1.60255 0.9222,1.82474 0.95107,0.17593 4.78611,0.14733 5.14406,-0.0383 z m -48.14602,-79.67862 c -1.07067,-0.41956 -1.21152,-0.49247 -1.6284,-0.84326 -0.46945,-0.39505 -0.70674,-1.09261 -0.46908,-1.37898 0.1151,-0.13865 0.0642,-0.16763 -0.2306,-0.13117 -0.5097,0.063 -0.91697,-0.26569 -0.79708,-0.64345 0.0811,-0.25538 0.51061,-0.58901 2.69046,-2.08942 0.27726,-0.19082 0.78515,-0.653 1.12865,-1.02711 0.69842,-0.7606 2.40421,-2.16503 2.62958,-2.16503 0.0804,0 0.1462,-0.0528 0.1462,-0.11672 0,-0.0642 0.32789,-0.29152 0.72865,-0.50517 0.40075,-0.21358 0.88478,-0.52955 1.07561,-0.70202 0.42811,-0.38706 2.29442,-1.18915 2.80294,-1.20468 0.57631,-0.0176 1.04391,0.37638 1.48079,1.24761 0.70577,1.40744 0.67412,2.91646 -0.0927,4.41957 -0.4729,0.92698 -2.49154,2.86838 -4.05223,3.89725 -1.17045,0.7716 -1.96743,1.09342 -2.98396,1.20486 -0.38168,0.0415 -0.975,0.11025 -1.3185,0.15205 -0.3785,0.0459 -0.81593,0 -1.11032,-0.11433 z m 2.34207,-1.28689 c 0.23855,-0.0478 0.43372,-0.14237 0.43372,-0.21032 0,-0.0679 -0.32271,-0.56726 -0.71713,-1.10951 l -0.71714,-0.986 -0.25887,0.5046 c -0.20026,0.39033 -0.23809,0.66123 -0.16711,1.19631 0.0887,0.66878 0.10664,0.69166 0.54228,0.69166 0.24779,0 0.64572,-0.039 0.88425,-0.0867 z m -2.75391,-0.91951 c 0.003,-0.17172 0.11511,-0.63219 0.25027,-1.02321 l 0.24572,-0.71095 -0.64686,0.48298 -0.64684,0.48291 0.26104,0.5403 c 0.29079,0.60183 0.52977,0.70334 0.53667,0.22797 z m 5.87777,-0.64225 0.38266,-0.39944 -0.46078,-0.1814 c -0.25344,-0.0997 -0.49247,-0.20126 -0.53121,-0.22546 -0.0387,-0.0245 -0.0481,0.23709 -0.0207,0.58078 0.0273,0.34369 0.0942,0.6249 0.14855,0.6249 0.0544,0 0.27104,-0.1797 0.4815,-0.39938 z m -1.7931,-1.43535 c 0.0553,-0.70705 0.15935,-1.39544 0.23119,-1.5297 0.15949,-0.29799 0.79318,-0.32313 0.90342,-0.0358 0.0439,0.11452 0.15886,0.20817 0.25539,0.20817 0.12169,0 0.19679,-0.3511 0.24492,-1.14502 0.0381,-0.62975 0.0549,-1.16238 0.0371,-1.18356 -0.16345,-0.19504 -2.80291,1.70186 -3.58729,2.57805 -0.25018,0.27946 -0.24484,0.29379 0.28916,0.7762 0.29922,0.27034 0.72122,0.77185 0.93776,1.11441 0.21656,0.34256 0.43739,0.59593 0.49075,0.56293 0.0534,-0.0333 0.14229,-0.63848 0.19761,-1.3456 z m 3.49357,-0.006 c 0.2311,-0.24809 0.54916,-0.63647 0.70683,-0.86306 l 0.28667,-0.41195 -0.7837,-0.51698 c -0.89128,-0.58795 -0.81897,-0.67783 -0.88316,1.09801 -0.0268,0.74087 0.0106,1.14502 0.1059,1.14502 0.081,0 0.33636,-0.20296 0.56746,-0.45104 z m 1.54992,-3.19504 c 0.0508,-0.77481 -0.43977,-2.04592 -0.78771,-2.04121 -0.32577,0.006 -1.35157,0.49134 -1.48298,0.70398 -0.126,0.20383 1.83198,2.10796 2.08287,2.02555 0.0802,-0.0264 0.16473,-0.33608 0.18782,-0.68832 z m 3.74684,-6.8672 c -0.36522,-0.42307 -1.22122,-2.27811 -1.22122,-2.64656 0,-0.19466 -0.10226,-0.71831 -0.22724,-1.16376 -0.21485,-0.7657 -0.21366,-0.82484 0.0215,-1.08475 0.13682,-0.15116 0.30769,-0.27486 0.37974,-0.27486 0.26781,0 0.90761,0.84452 0.99576,1.31436 0.0501,0.26738 0.33836,1.08003 0.64043,1.80581 0.61564,1.47923 0.67553,1.93769 0.28075,2.14895 -0.38508,0.2061 -0.63029,0.17813 -0.86973,-0.0992 z m 20.94354,44.6208 c 0.37737,-0.41433 0.62282,-0.90441 0.49298,-0.9843 -0.0575,-0.0352 -0.40965,-0.11 -0.78265,-0.16581 l -0.67819,-0.10151 0.0957,0.53904 c 0.20348,1.14584 0.36058,1.27419 0.87213,0.71258 z m -1.00638,-7.4464 c 0.18678,-0.36117 0.18585,-0.41151 -0.009,-0.48625 -0.11949,-0.0459 -0.26367,-0.0547 -0.32039,-0.0195 -0.0987,0.061 -0.0326,0.90869 0.071,0.90869 0.0275,0 0.14383,-0.18127 0.2584,-0.40284 z m -0.10919,-7.12648 c 0.64516,-0.91347 0.64873,-0.9261 0.29803,-1.0574 -1.00144,-0.37474 -0.94518,-0.41441 -0.94518,0.66638 0,0.53948 0.0519,0.98085 0.11526,0.98085 0.0634,0 0.30274,-0.26543 0.53189,-0.58983 z m -0.49815,-6.78033 c 0.25224,-0.35425 0.2724,-0.45249 0.11354,-0.55306 -0.4552,-0.28825 -0.67891,-0.14702 -0.67891,0.4286 0,0.66702 0.15478,0.70102 0.56537,0.12446 z m -0.45446,-5.57302 c 0.0797,-0.096 0.24761,-0.45513 0.37316,-0.79807 0.42943,-1.17281 0.43986,-1.1092 -0.18212,-1.1092 -0.30972,0 -0.5888,0.0465 -0.62015,0.10409 -0.0965,0.17612 0.0662,1.97773 0.17859,1.97773 0.0581,0 0.17082,-0.0786 0.25052,-0.17455 z m -1.77638,-11.01336 c 0,-0.20044 -0.48996,-0.27178 -0.60359,-0.0879 -0.0356,0.0578 -0.03,0.28712 0.0126,0.50994 l 0.0774,0.40504 0.25677,-0.3171 c 0.14123,-0.17443 0.25679,-0.40391 0.25679,-0.50995 z m -0.93776,-6.4863 c -0.0624,-0.11005 -1.10019,-0.0138 -1.49876,0.13954 -0.1771,0.0679 -0.14718,0.21459 0.2886,1.41436 0.0423,0.11647 0.29688,-0.11999 0.6724,-0.62452 0.33238,-0.44665 0.57437,-0.86482 0.53776,-0.92938 z m -2.61149,-5.87918 c 0.27182,-0.51189 0.44775,-0.97243 0.39095,-1.0234 -0.1684,-0.15111 -1.2328,-0.24451 -1.426,-0.12508 -0.14303,0.0884 -0.12975,0.28473 0.067,0.99065 0.24647,0.88412 0.32571,1.08858 0.42189,1.08858 0.0285,0 0.27432,-0.41886 0.54614,-0.93075 z"
         style="fill:#000000" />
    </g>
  </g>
</svg>
