<?xml version="1.0" encoding="UTF-8" standalone="no"?>
<!-- Created with Inkscape (http://www.inkscape.org/) -->

<svg
   xmlns:dc="http://purl.org/dc/elements/1.1/"
   xmlns:cc="http://creativecommons.org/ns#"
   xmlns:rdf="http://www.w3.org/1999/02/22-rdf-syntax-ns#"
   xmlns:svg="http://www.w3.org/2000/svg"
   xmlns="http://www.w3.org/2000/svg"
   xmlns:sodipodi="http://sodipodi.sourceforge.net/DTD/sodipodi-0.dtd"
   xmlns:inkscape="http://www.inkscape.org/namespaces/inkscape"
   width="89"
   height="54"
   id="svg4327"
   version="1.1"
   inkscape:version="0.48.0 r9654"
   sodipodi:docname="New document 35">
  <defs
     id="defs4329" />
  <sodipodi:namedview
     id="base"
     pagecolor="#ffffff"
     bordercolor="#666666"
     borderopacity="1.0"
     inkscape:pageopacity="0.0"
     inkscape:pageshadow="2"
     inkscape:zoom="7.9195959"
     inkscape:cx="59.87917"
     inkscape:cy="25.548355"
     inkscape:document-units="px"
     inkscape:current-layer="layer1"
     showgrid="false"
     inkscape:window-width="1280"
     inkscape:window-height="723"
     inkscape:window-x="0"
     inkscape:window-y="24"
     inkscape:window-maximized="1" />
  <metadata
     id="metadata4332">
    <rdf:RDF>
      <cc:Work
         rdf:about="">
        <dc:format>image/svg+xml</dc:format>
        <dc:type
           rdf:resource="http://purl.org/dc/dcmitype/StillImage" />
        <dc:title></dc:title>
      </cc:Work>
    </rdf:RDF>
  </metadata>
  <g
     inkscape:label="Layer 1"
     inkscape:groupmode="layer"
     id="layer1"
     transform="translate(0,-998.36218)">
    <rect
       style="fill:#000000;fill-opacity:1;fill-rule:nonzero;stroke:#000000;stroke-width:0.90000004;stroke-linecap:round;stroke-linejoin:round;stroke-miterlimit:4;stroke-opacity:1;stroke-dasharray:none"
       id="rect3887-0-3-6-9"
       width="6.2343431"
       height="16.581631"
       x="998.68011"
       y="-31.344687"
       ry="1.507421"
       rx="0"
       transform="matrix(0,1,-1,0,0,0)" />
    <rect
       style="fill:#000000;fill-opacity:1;fill-rule:nonzero;stroke:#000000;stroke-width:0.90000004;stroke-linecap:round;stroke-linejoin:round;stroke-miterlimit:4;stroke-opacity:1;stroke-dasharray:none"
       id="rect3887-0-4-1-5-5"
       width="6.4978433"
       height="16.626572"
       x="1045.147"
       y="-31.422794"
       ry="1.507421"
       transform="matrix(0,1,-1,0,0,0)" />
    <rect
       style="fill:#000000;fill-opacity:1;fill-rule:nonzero;stroke:#000000;stroke-width:0.89999998;stroke-linecap:round;stroke-linejoin:round;stroke-miterlimit:4;stroke-opacity:1;stroke-dasharray:none"
       id="rect3887-0-4-6-9-38-1"
       width="6.4978609"
       height="10.317302"
       x="1045.147"
       y="-72.21109"
       ry="1.0130829"
       transform="matrix(0,1,-1,0,0,0)" />
    <rect
       style="fill:#000000;fill-opacity:1;fill-rule:nonzero;stroke:#000000;stroke-width:0.89999998;stroke-linecap:round;stroke-linejoin:round;stroke-miterlimit:4;stroke-opacity:1;stroke-dasharray:none"
       id="rect3887-5-9-1"
       width="6.3251519"
       height="11.399516"
       x="998.58929"
       y="-72.992889"
       ry="1.0130829"
       transform="matrix(0,1,-1,0,0,0)" />
    <path
       style="fill:#79bf50;fill-opacity:1;fill-rule:nonzero;stroke:none"
       d="m 87.517561,1015.9283 c 0.810394,5.1777 1.528882,10.4671 0,18.4912 -1.59703,8.3818 -6.777524,15.4092 -15.196235,15.4092 l -14.034293,-4.6817 -9.9191,0 -10.332396,0 -21.433796,4.6817 c -8.2299438,1.7977 -15.1962431,-6.8725 -15.1962431,-15.4092 l 0,-18.4912 c 0,-8.5366 6.7775233,-15.4091 15.1962431,-15.4091 l 21.433796,4.3952 10.332396,0 9.9191,0 14.034293,-4.3952 c 8.043807,-2.51921 13.876598,6.978 15.196235,15.4091 z"
       id="rect2985-0-9-1-2"
       inkscape:connector-curvature="0"
       sodipodi:nodetypes="ssscccsssscccss" />
    <path
       style="fill:none;stroke:#000000;stroke-width:1.60000014;stroke-miterlimit:4;stroke-opacity:1"
       d="m 87.22084,1015.9467 c 0.810394,5.1776 1.528882,10.467 0,18.4911 -1.597029,8.3818 -6.777523,15.4093 -15.196233,15.4093 l -13.737575,-4.7001 -9.9191,0 -10.332396,0 -21.730513,4.7001 c -8.2335045,1.7809 -15.1962433,-6.8725 -15.1962433,-15.4093 l 0,-18.4911 c 0,-8.5367 6.7775231,-15.4093 15.1962433,-15.4093 l 21.730513,4.377 10.332396,0 9.9191,0 13.737575,-4.377 c 8.03158,-2.55887 13.876596,6.9782 15.196233,15.4093 z"
       id="rect2985-9-89-3"
       inkscape:connector-curvature="0"
       sodipodi:nodetypes="ssscccsssscccss" />
    <path
       style="fill:#c7daf5;fill-opacity:1;fill-rule:nonzero;stroke:#000000;stroke-width:0.89999998;stroke-linecap:round;stroke-linejoin:round;stroke-miterlimit:4;stroke-opacity:1"
       d="m 59.457397,1009.1454 c 0.984337,8.4297 2.664597,15.672 0,31.3698 -1.128334,6.6472 -3.880815,-0.3972 -6.956501,-0.3972 -3.075676,0 -2.998603,-1.8789 -2.934287,-5.6478 l 0.303066,-17.7603 c 0.06429,-3.7689 -2.097667,-5.8673 0.978039,-5.8673 3.075686,0 7.892739,-7.837 8.609683,-1.6972 z"
       id="rect3773-6-9-6"
       inkscape:connector-curvature="0"
       sodipodi:nodetypes="cssssssc" />
    <path
       style="fill:#c7daf5;fill-opacity:1;fill-rule:nonzero;stroke:#000000;stroke-width:0.9000001;stroke-linecap:round;stroke-linejoin:round;stroke-miterlimit:4;stroke-opacity:1"
       d="m 51.841318,1015.6388 -0.177884,18.2493 c -0.05075,5.2036 -3.01132,9.5612 -6.638161,9.7703 -3.6268,0.209 -6.505777,-3.8119 -6.45507,-9.0155 l 0.177884,-18.2494 c 0.05075,-5.2036 3.01131,-9.5612 6.63811,-9.7703 3.626811,-0.209 6.505788,3.8119 6.455081,9.0156 z"
       id="rect3777-37-9-22-5-7"
       inkscape:connector-curvature="0" />
    <path
       style="fill:#eaefc2;fill-opacity:1;fill-rule:nonzero;stroke:#000000;stroke-width:1;stroke-opacity:1"
       d="m 54.154068,1016.2625 0,18.7254 c 0,6.202 -6.667856,4.6401 -12.398873,6.8064 l -11.572292,0 -13.006279,4.3885 c -5.803396,1.9583 -11.0401725,-4.9929 -11.0401725,-11.1949 l 0,-18.7254 c 0,-6.2021 4.9239215,-11.1949 11.0401725,-11.1949 l 13.006279,4.0377 11.572292,0 c 6.116261,0 12.398873,0.9551 12.398873,7.1572 z"
       id="rect4898-1-7"
       inkscape:connector-curvature="0"
       sodipodi:nodetypes="ssscsssscss" />
    <g
       id="g7944"
       transform="matrix(0,0.49152876,-0.4847343,0,333.27293,783.82173)">
      <path
         inkscape:connector-curvature="0"
         id="path7942"
         d="m 485.05205,669.73692 c 0.1457,0 2.13086,0.25498 2.13086,0.25498 l 2.51332,0.16391 4.49847,-0.0729 7.50353,-0.56459 8.96052,-1.65733 8.65091,-3.49679 -7.9042,-27.24582 -0.8742,-6.11938 -5.24518,-13.69576 -10.19897,-4.66238 -19.23234,1.01989 -6.41078,10.78177 -4.37099,9.76187 0.4371,6.26508 2.91399,7.43068 -5.82798,14.86136 5.82798,2.91399 4.51669,1.71197 8.66912,1.82124 z"
         style="fill:#ffffff;fill-opacity:1;stroke:none" />
      <path
         sodipodi:nodetypes="ccscsccscsccsscssssccssssssssscsscssscccscscccsssssssccccscccscscccccscsscccsccssscsssscscsssccsccsccssscccccsscccccssccssscccssscscsccccsssccsscssc"
         inkscape:connector-curvature="0"
         id="path2999"
         d="m 454.38419,652.70655 c 0.87131,-1.63654 1.12883,-1.38188 1.88701,-1.73709 1.66376,-0.93852 0.79478,-0.40146 1.51771,-0.86618 0.14513,-0.0933 0.80939,-0.85585 1.79864,-1.51847 0.98925,-0.66265 2.07774,-1.44802 2.41886,-1.74531 0.34113,-0.29728 1.01097,-0.75168 1.48854,-1.00977 0.47757,-0.25811 1.13456,-0.66465 1.45997,-0.90344 0.3254,-0.23878 0.79987,-0.43415 1.05438,-0.43415 0.62851,0 0.58569,-0.28575 -0.27009,-1.80239 -1.84132,-3.26333 -1.97859,-9.14628 -0.28967,-12.41602 0.26865,-0.52012 0.60714,-1.24577 0.7522,-1.61257 0.14508,-0.3668 0.59383,-1.22511 0.99722,-1.90736 1.24064,-2.09818 2.00202,-3.56749 2.00202,-3.86343 0,-0.15545 -0.28133,-0.50394 -0.62518,-0.77441 -1.13394,-0.89195 -1.8586,-3.22875 -1.38642,-4.47071 0.22646,-0.59558 4.38152,-4.90843 4.72887,-4.90843 0.10536,0 0.62558,-0.34502 1.15602,-0.76669 2.37297,-1.88637 4.27206,-1.9049 5.15647,-0.0503 0.33333,0.69901 0.52419,0.84603 0.96477,0.74322 3.84063,-0.89622 6.59005,-1.16956 12.58154,-1.25088 1.81144,-0.0246 2.54057,0.0676 3.1508,0.39823 1.20045,0.65049 1.45992,0.54654 2.29973,-0.92128 1.03505,-1.80911 2.02557,-2.6179 3.20605,-2.6179 1.62515,0 3.83376,0.51848 5.07708,1.19186 1.62923,0.8824 4.31382,3.80211 4.52348,4.91965 0.22211,1.18395 -0.45721,2.84047 -1.58767,3.87152 -1.76929,1.61367 -1.75682,1.38287 -0.23504,4.34741 0.75203,1.46498 1.44695,3.10951 1.54428,3.65449 0.0973,0.545 0.45368,1.6614 0.7919,2.48089 1.06432,2.57885 1.74508,5.4807 1.85696,7.91571 l 0.0559,1.21583 1.81948,0.84065 c 1.30703,0.60387 2.10945,0.82356 2.84893,0.77992 0.78905,-0.0466 1.09206,0.0484 1.2976,0.40642 0.14749,0.25692 1.63575,1.86463 3.30725,3.57267 1.67149,1.70804 3.03908,3.19067 3.03908,3.29472 0,0.10405 0.75357,1.13083 1.6746,2.28172 1.9248,2.40519 4.08227,6.44445 4.98896,9.34041 -33.0164,24.28252 -83.09527,5.67175 -77.0522,-5.67855 m 48.42315,4.62757 c -2.16884,0.90798 -3.9586,1.40969 -5.64908,2.0743 -1.69045,0.6646 -3.79278,0.36744 -3.9286,0.2911 -0.96881,-0.5445 -2.88627,-1.12084 -6.26032,-0.9503 -1.61585,0.0816 -5.17468,0.22038 -6.34933,-0.20847 -1.17058,-0.42736 -2.84982,-1.79197 -6.53535,-3.22215 -2.47565,0.28917 -3.78293,0.84487 -5.13258,2.32816 -0.1524,0.21462 -2.76825,4.86214 -3.55216,4.81029 -0.43468,-0.0287 1.89907,3.14443 7.21727,4.43997 1.36449,0.33241 5.7504,1.35285 7.48932,1.69851 1.73893,0.34564 3.69913,0.7082 5.54528,1.08445 1.84615,0.37623 3.98723,0.35717 5.98573,0.34854 1.73846,-0.007 5.46681,-0.23809 6.76597,-0.40702 28.29801,-3.67903 14.75537,-8.05834 14.5315,-11.91706 -0.30962,-5.3367 -5.23978,-4.14821 -5.58076,-3.71497 m -19.37894,-1.04458 -0.56145,-1.50213 m 1.56626,-4.62469 c -0.24953,0.50076 -2.06718,0.0951 -3.53755,1.32668 -1.27679,1.06941 -3.73145,-0.22309 -4.18873,-0.14357 -0.89192,0.40639 -4.05855,-0.6784 -4.26268,-1.32157 -0.2432,-0.76625 -0.24005,-1.02329 1.26386,-0.88692 1.13225,0.10266 2.1414,1.04123 3.05127,0.6267 0.63498,-0.28927 1.837,0.0875 1.98387,0.0875 0.14684,0 1.14998,-0.16526 1.51128,-0.19021 1.04202,-0.0716 0.64572,-0.0553 1.42179,-0.40392 1.31132,-0.63118 1.04076,-0.4181 1.37804,-0.66304 0.64741,-0.16592 2.17204,-1.04718 2.45089,-0.95866 0.519,0.16473 -0.0711,1.79184 -0.49678,2.05491 m -2.91146,10.94543 c 0.81603,0.004 1.17003,0.18973 2.88403,0.26863 1.17834,0.0542 1.60426,-0.47105 2.72887,0.1712 1.43132,0.56917 2.41036,0.83343 3.18293,0.42761 0.23692,-0.12447 1.91001,-0.69026 3.71795,-1.25736 1.80795,-0.56709 3.28718,-1.1097 3.28718,-1.20581 0,-0.0961 0.40203,-0.39127 0.89339,-0.6559 2.09484,-1.12813 4.54553,-4.2708 4.5591,-5.84633 0.003,-0.34795 0.0992,-0.73869 0.21385,-0.86831 0.3151,-0.35631 1.68606,-5.62514 2.16916,-8.33633 0.28833,-1.6181 0.37889,-2.98574 0.27923,-4.2175 -0.14761,-1.82484 -1.02357,-5.56639 -1.41354,-6.03788 -0.11399,-0.13784 -0.50314,-1.27974 -0.86476,-2.53755 -0.81874,-2.84781 -2.46156,-6.02404 -3.11579,-6.02404 -0.12246,0 -0.56527,0.33492 -0.98402,0.74426 -0.88841,0.86846 -1.48394,0.93852 -2.10875,0.24809 -0.24698,-0.27289 -0.6107,-0.49617 -0.8083,-0.49617 -0.36509,0 -1.54363,-1.01171 -3.39569,-2.91502 -0.58346,-0.59961 -1.25754,-1.05438 -1.56288,-1.05438 -0.61087,0 -0.87285,-0.90555 -0.75325,-2.60354 0.064,-0.90897 -0.002,-1.02865 -0.7985,-1.44621 -0.7819,-0.40994 -1.25101,-0.43738 -4.71368,-0.27572 -2.11496,0.0987 -4.38122,0.15952 -5.03618,0.13506 -2.09674,-0.0783 -4.72924,0.54182 -6.53616,1.53959 -0.80967,0.44708 -5.0496,4.17237 -5.0496,4.43666 0,0.1276 -0.26429,0.58735 -0.58732,1.02171 -0.32304,0.43435 -1.06388,1.68283 -1.64635,2.77442 -0.58243,1.09159 -1.20055,2.15217 -1.37356,2.35684 -0.51178,0.60539 -2.33412,4.35758 -2.9764,6.12829 -0.32735,0.90249 -0.66606,2.26748 -0.7527,3.0333 -0.15572,1.3763 0.24457,4.93957 0.64054,5.70207 0.11249,0.21658 0.48268,0.95844 0.82267,1.64855 0.91877,1.86498 1.61619,3.06595 2.35706,4.05885 0.82023,1.09931 1.84399,2.57502 2.18358,2.97823 0.42155,0.50052 1.719,2.04703 1.95144,2.45673 0.40207,0.70871 1.68452,2.41901 3.68714,3.86675 1.13644,0.82157 2.37872,1.35144 2.83975,1.57559 m -1.78059,-14.64035 c -1.63155,-1.82621 -2.45458,-4.30652 -1.90482,-5.74043 0.15114,-0.39416 0.21048,-0.78095 0.13188,-0.85955 -0.24608,-0.24605 -0.9701,0.35772 -1.1058,0.92215 -0.14436,0.60052 -1.38183,1.5182 -2.05065,1.5207 -0.23787,0 -0.8798,-0.19214 -1.42656,-0.42901 -0.78252,-0.33902 -1.13922,-0.7175 -1.67591,-1.77825 -0.61571,-1.21695 -0.68185,-1.60204 -0.6822,-3.9729 0,-2.30796 0.0742,-2.77139 0.61663,-3.83351 1.21756,-2.38401 4.48323,-4.82959 6.48982,-4.86003 1.08412,-0.0164 4.1014,1.34566 4.78779,2.16142 l 0.62722,0.74538 2.42216,-0.82767 c 2.64683,-0.90446 4.25757,-0.94986 6.01947,-0.16964 1.96429,0.86982 4.08257,2.88497 4.97472,4.73256 0.30883,0.63952 0.65498,1.35578 0.76928,1.59169 0.22157,0.45735 -0.20783,1.96784 -1.11221,3.91263 -0.75275,1.6187 -2.8519,3.6442 -3.99991,3.85956 -1.37332,0.25764 -4.2957,-0.0122 -4.79376,-0.44256 -0.23527,-0.20331 -0.81125,-0.49851 -1.27997,-0.656 -0.46871,-0.15746 -1.05482,-0.46968 -1.30246,-0.69378 -0.41997,-0.38007 -0.45058,-0.3757 -0.45495,0.0651 -0.007,0.71985 -1.06288,3.8942 -1.48384,4.46158 -0.53371,0.71935 -1.51582,1.34493 -2.11143,1.34493 -0.28979,0 -0.92185,-0.45817 -1.4545,-1.05437 z m 3.56454,-8.06288 c -0.004,-0.54791 -0.55023,-2.04673 -0.7458,-2.04673 -0.12524,0 -0.33557,0.20157 -0.4674,0.44789 -0.13186,0.24636 -0.64545,0.66501 -1.14133,0.93034 l -0.90163,0.48243 1.44271,0.14436 c 0.79348,0.0794 1.52644,0.16315 1.62877,0.18607 0.10234,0.0228 0.18545,-0.042 0.18468,-0.14436 z m 6.82383,-3.25421 c 0,-0.69829 0.13434,-1.24451 -0.65277,-1.69335 -0.81177,-0.46288 -1.24657,-0.15161 -1.45579,0.17185 -0.41197,0.63694 -0.68199,1.55003 -0.0709,1.78239 0.32251,0.12261 0.73377,0.45835 1.15247,0.32569 0.76317,-0.24176 1.02694,0.32468 1.02694,-0.58658 z m -11.96958,-0.57921 c 0.44484,-0.44485 0.008,-1.76324 -0.38573,-1.76324 -0.56726,0 -1.65865,0.51163 -1.65865,0.97553 0,0.58599 1.5062,1.32589 2.04438,0.78771 z"
         style="fill:#000000;fill-opacity:1;stroke:none" />
    </g>
  </g>
</svg>
