<?xml version="1.0" encoding="UTF-8" standalone="no"?>
<!-- Created with Inkscape (http://www.inkscape.org/) -->

<svg
   xmlns:dc="http://purl.org/dc/elements/1.1/"
   xmlns:cc="http://creativecommons.org/ns#"
   xmlns:rdf="http://www.w3.org/1999/02/22-rdf-syntax-ns#"
   xmlns:svg="http://www.w3.org/2000/svg"
   xmlns="http://www.w3.org/2000/svg"
   xmlns:sodipodi="http://sodipodi.sourceforge.net/DTD/sodipodi-0.dtd"
   xmlns:inkscape="http://www.inkscape.org/namespaces/inkscape"
   width="640"
   height="480"
   id="svg2"
   version="1.1"
   inkscape:version="0.48.0 r9654"
   sodipodi:docname="raceResults.svg">
  <defs
     id="defs4" />
  <sodipodi:namedview
     id="base"
     pagecolor="#ffffff"
     bordercolor="#666666"
     borderopacity="1.0"
     inkscape:pageopacity="0.0"
     inkscape:pageshadow="2"
     inkscape:zoom="0.98994949"
     inkscape:cx="522.75801"
     inkscape:cy="249.43413"
     inkscape:document-units="px"
     inkscape:current-layer="layer1"
     showgrid="false"
     showguides="true"
     inkscape:guide-bbox="true"
     inkscape:window-width="1280"
     inkscape:window-height="723"
     inkscape:window-x="0"
     inkscape:window-y="24"
     inkscape:window-maximized="1" />
  <metadata
     id="metadata7">
    <rdf:RDF>
      <cc:Work
         rdf:about="">
        <dc:format>image/svg+xml</dc:format>
        <dc:type
           rdf:resource="http://purl.org/dc/dcmitype/StillImage" />
        <dc:title />
      </cc:Work>
    </rdf:RDF>
  </metadata>
  <g
     inkscape:groupmode="layer"
     id="layer2"
     inkscape:label="trackOutline"
     style="display:inline"
     sodipodi:insensitive="true">
    <path
       style="fill:#8cb767;fill-opacity:1;stroke:none"
       d="M 7.0710678,9.0163752 C 157.81748,5.5495663 308.60726,4.4741789 459.38997,5.2348864 c 56.89756,0.081985 113.79512,0.1639699 170.69268,0.2459549 11.11157,2.5048896 3.66009,16.7086177 5.80838,24.8623597 -6.3e-4,148.457259 0.49638,296.914039 0.71611,445.371089 -18.47361,3.30519 -37.86801,0.47468 -56.69902,1.39831 C 392.43875,477.00364 204.96937,476.89467 17.5,476.78571 4.9971686,475.81317 4.0020213,466.94939 5.5112196,456.36828 5.2812893,308.29314 5.0513589,160.218 4.8214286,12.142856 5.5713083,11.100696 6.3211881,10.058535 7.0710678,9.0163752 z"
       id="path3961"
       inkscape:connector-curvature="0" />
    <path
       style="fill:#000000;fill-opacity:1"
       d="m 626.21318,478.47573 c -207.69111,0.5449 -415.39804,0.6685 -622.9682046,-0.7656 -2.2338,-22.266 0.59438,-47.0865 -0.40137,-70.26564 0.94884,-132.32587 -0.90036,-264.51858 0.452,-396.395214 C 13.407655,-1.3339537 44.884015,10.377716 61.99807,5.2651063 c 188.67614,-2.3951901 377.71815,-2.5367201 566.41036,-1.6116 22.33497,3.69789 2.39882,43.7359087 9.49951,61.0191887 0.0993,137.066535 0.98128,274.057765 0.59379,411.122135 -2.62576,4.3714 -8.2464,1.9724 -12.28855,2.6809 z m 6.7779,-3.5783 c 5.35835,-19.6803 0.76162,-42.09994 2.4655,-62.72621 0.0966,-134.57392 -0.0629,-269.19121 -1.14266,-403.7364637 -23.39986,-4.57111 -49.89843,-1.12162 -74.51695,-2.33204 -184.03589,0.0725 -368.28219,-1.24033 -552.1750146,3.88547 -2.34962,152.0624737 -0.53319,304.2189637 -0.72235,456.3328437 9.7572296,19.0014 51.4026746,2.654 72.3773346,8.6046 184.37879,1.6167 368.77457,2.0993 553.15779,0.5111 l 0.55624,-0.5393 z"
       id="path3913"
       inkscape:connector-curvature="0"
       sodipodi:nodetypes="ccccccccccccccccccc" />
    <text
       xml:space="preserve"
       style="font-size:32px;font-style:normal;font-variant:normal;font-weight:normal;font-stretch:normal;line-height:125%;letter-spacing:0px;word-spacing:0px;fill:#000000;fill-opacity:1;stroke:none;font-family:Purisa;-inkscape-font-specification:Purisa"
       x="192.95944"
       y="90.081123"
       id="text4593"
       sodipodi:linespacing="125%"><tspan
         sodipodi:role="line"
         id="tspan4595"
         x="192.95944"
         y="90.081123">race</tspan></text>
    <text
       xml:space="preserve"
       style="font-size:32px;font-style:normal;font-variant:normal;font-weight:normal;font-stretch:normal;line-height:125%;letter-spacing:0px;word-spacing:0px;fill:#000000;fill-opacity:1;stroke:none;font-family:Purisa;-inkscape-font-specification:Purisa"
       x="375.69553"
       y="90.081123"
       id="text4597"
       sodipodi:linespacing="125%"><tspan
         sodipodi:role="line"
         id="tspan4599"
         x="375.69553"
         y="90.081123">result</tspan></text>
  </g>
  <g
     inkscape:groupmode="layer"
     id="layer4"
     inkscape:label="lapResults"
     style="display:inline"
     sodipodi:insensitive="true">
    <path
       style="fill:#ffffff;fill-opacity:1;stroke:none"
       d="m 85,370.35714 c -1.828799,-13.72713 -3.035624,-27.53218 -2.5,-41.38685 0,-56.44248 0,-112.88495 0,-169.32743 4.161383,-8.02059 14.717882,-3.40834 21.92559,-5.22128 26.23763,-1.17305 52.46253,-2.95355 78.63149,-4.97611 10.78112,1.25954 15.05159,12.07154 12.99091,21.78471 -0.22961,68.87561 -0.0678,137.75306 -0.69085,206.62696 -31.42793,-0.52991 -62.9001,-0.86075 -94.30692,-0.4102 C 95.428553,375.94607 90.363485,372.63564 85,370.35714 z"
       id="path4671"
       inkscape:connector-curvature="0" />
    <path
       style="fill:#000000;fill-opacity:1"
       d="m 185.49644,379.58732 c -30.25376,-4.99293 -61.08835,4.46597 -91.203286,-2.40466 -8.898105,1.0919 -14.193383,-5.56819 -11.754214,-13.98199 -3.48762,-33.90024 -2.24771,-67.97781 -2.552915,-101.9882 -0.03592,-33.59126 0.114382,-67.1843 0.745179,-100.77029 2.245993,-9.41537 13.480763,-10.01261 21.329566,-8.67362 11.63988,2.12196 23.22512,-1.85973 34.89944,-2.23315 15.97574,-0.96789 32.18276,-3.3607 48.11698,-1.09745 11.09594,1.53724 11.89432,13.76185 13.01188,22.54677 4.04877,33.90167 0.84701,68.09776 -0.51749,102.06902 -1.09511,19.4867 -1.13044,39.03326 0.363,58.48745 -0.14609,12.7602 -0.78021,25.60804 1.53861,38.22246 0.63068,7.74026 -7.15411,11.95552 -13.97675,9.82366 z m 7.47525,-5.26983 c 2.57846,-69.18212 2.83589,-138.43153 1.93347,-207.64954 3.44477,-10.88282 -9.98417,-15.55588 -18.55327,-14.67729 -12.54978,0.45795 -25.18728,0.88483 -37.58717,3.27715 -17.6465,2.03536 -35.4239,2.73803 -53.179871,2.6941 -3.019201,33.25837 -1.035544,66.69343 -1.468008,100.0303 0.397068,34.92964 0.276377,69.93728 0.930814,104.8186 3.268256,11.93705 18.704735,16.20751 29.017725,10.82603 11.44069,-3.24592 23.06052,0.82505 34.41634,2.35821 12.0082,-2.76342 24.46566,-3.97286 36.62606,-1.45165 2.6116,0.27751 5.28659,0.37382 7.86391,-0.22591 z"
       id="path3913-1-8"
       inkscape:connector-curvature="0" />
    <text
       xml:space="preserve"
       style="font-size:22px;font-style:normal;font-variant:normal;font-weight:normal;font-stretch:normal;text-align:start;line-height:125%;letter-spacing:0px;word-spacing:0px;writing-mode:lr-tb;text-anchor:start;fill:#000000;fill-opacity:1;stroke:none;font-family:Purisa;-inkscape-font-specification:Purisa"
       x="85.862961"
       y="182.75119"
       id="text4665"
       sodipodi:linespacing="125%"><tspan
         sodipodi:role="line"
         id="tspan4667"
         x="85.862961"
         y="182.75119">lap times</tspan></text>
    <path
       style="fill:none;stroke:#000000;stroke-width:1.20000005;stroke-linecap:butt;stroke-linejoin:miter;stroke-miterlimit:4;stroke-opacity:1;stroke-dasharray:3.6, 1.2;stroke-dashoffset:0"
       d="m 92.934034,196.14713 c 0,0 82.832506,-9.09137 95.964496,-2.0203"
       id="path4673"
       inkscape:connector-curvature="0" />
    <path
       style="fill:#ffffff;fill-opacity:1;stroke:none"
       d="m 338.32818,289.4753 c 83.39097,-0.9258 166.78195,-1.8516 250.17292,-2.7774 3.66042,0.81007 7.32083,1.62015 10.98125,2.43022 0.13311,10.99388 0.26621,21.98775 0.39932,32.98163 -8.90545,2.20284 -18.17601,0.77618 -27.2577,1.22703 -44.14876,0.0786 -88.29883,0.35049 -132.44531,0.55468 -33.88444,-0.45877 -67.76712,-1.04045 -101.65083,-1.55025 -1.91262,-5.33321 -4.87469,-10.46148 -4.1089,-16.31774 -0.0945,-4.82171 -0.18907,-9.64341 -0.2836,-14.46512 1.39762,-0.69435 2.79523,-1.3887 4.19285,-2.08305 z"
       id="path4644-2"
       inkscape:connector-curvature="0" />
    <path
       style="fill:#000000;fill-opacity:1"
       d="m 588.0444,324.48636 c -49.38908,-2.55183 -48.56092,2.31532 -253.39551,-1.92818 0.67897,-2.15522 -3.57083,-14.74083 -3.0606,-22.07029 -0.54147,-1.33144 -0.40767,-7.07155 0.50537,-9.32897 11.3062,-8.02507 46.49964,-0.43521 65.63472,-3.74849 35.89353,-0.89759 -18.2046,-1.64394 192.77051,-1.04441 24.97253,2.39646 2.6821,5.01334 10.62132,16.21394 -2.28904,11.49805 0.67362,10.79994 0.66391,20.16901 -2.93584,2.83294 -9.22023,1.27824 -13.73972,1.73739 z m 7.57831,-2.31895 c 0.79267,-4.13521 4.09481,4.51359 1.47906,-32.70285 -26.16318,-2.96236 -55.791,-0.72688 -83.31675,-1.5113 -5.01048,-0.36217 28.75487,-0.80381 -176.8541,2.51801 -3.17053,1.74793 -0.79079,0.85415 -0.80765,26.13811 10.90947,12.31405 57.47289,1.71995 80.92448,5.5763 34.477,3.01164 -28.20436,1.36047 177.95291,0.33122 l 0.62193,-0.34949 z"
       id="path3913-1-80"
       inkscape:connector-curvature="0"
       sodipodi:nodetypes="cccccccccccccccccc" />
    <text
       xml:space="preserve"
       style="font-size:18px;font-style:normal;font-variant:normal;font-weight:normal;font-stretch:normal;text-align:start;line-height:125%;letter-spacing:0px;word-spacing:0px;writing-mode:lr-tb;text-anchor:start;fill:#000000;fill-opacity:1;stroke:none;font-family:Purisa;-inkscape-font-specification:Purisa"
       x="338.11325"
       y="311.01572"
       id="text4679"
       sodipodi:linespacing="125%"><tspan
         sodipodi:role="line"
         id="tspan4681"
         x="338.11325"
         y="311.01572">your total time:</tspan></text>
    <path
       style="fill:#ffffff;fill-opacity:1;stroke:none"
       d="m 337.44104,176.9572 c 83.22846,-0.92711 166.45693,-1.85422 249.68539,-2.78133 3.65329,0.81122 7.30657,1.62245 10.95986,2.43367 0.13284,11.00943 0.26569,22.01887 0.39853,33.0283 -8.88736,2.20587 -18.14154,0.77732 -27.20597,1.22877 -44.06237,0.0787 -88.12606,0.35099 -132.18615,0.55545 -33.81829,-0.45941 -67.63483,-1.04192 -101.45239,-1.55244 -1.90539,-5.33562 -4.86115,-10.46676 -4.10052,-16.32136 -0.0945,-4.83502 -0.18895,-9.67004 -0.28342,-14.50506 1.39489,-0.69533 2.78978,-1.39067 4.18467,-2.086 z"
       id="path4644-2-8"
       inkscape:connector-curvature="0" />
    <text
       xml:space="preserve"
       style="font-size:18px;font-style:normal;font-variant:normal;font-weight:normal;font-stretch:normal;text-align:start;line-height:125%;letter-spacing:0px;word-spacing:0px;writing-mode:lr-tb;text-anchor:start;fill:#000000;fill-opacity:1;stroke:none;font-family:Purisa;-inkscape-font-specification:Purisa"
       x="337.67523"
       y="199.19788"
       id="text4675"
       sodipodi:linespacing="125%"><tspan
         sodipodi:role="line"
         id="tspan4677"
         x="337.67523"
         y="199.19788">your best lap:</tspan></text>
    <path
       style="fill:#000000;fill-opacity:1"
       d="m 586.67063,212.01781 c -49.29283,-2.55545 -48.46629,2.31859 -252.9017,-1.93091 0.67764,-2.15827 -3.56388,-14.76169 -3.05464,-22.10152 -0.54041,-1.33332 -0.40687,-7.08156 0.50439,-9.34217 11.28416,-8.03643 46.40902,-0.43583 65.50681,-3.75379 35.82358,-0.89886 -18.16913,-1.64627 192.39484,-1.04589 24.92387,2.39984 2.67687,5.02042 10.60062,16.23688 -2.28457,11.51432 0.67231,10.81523 0.66262,20.19756 -2.93012,2.83694 -9.20226,1.28003 -13.71294,1.73984 z m 7.56354,-2.32224 c 0.79112,-4.14106 4.08683,4.51998 1.47617,-32.74912 -26.11219,-2.96654 -55.68227,-0.72791 -83.15438,-1.51344 -5.00072,-0.36267 28.69883,-0.80494 -176.50945,2.52158 -3.16435,1.75039 -0.78925,0.85535 -0.80608,26.1751 10.88821,12.33147 57.3609,1.72237 80.76678,5.58419 34.40981,3.01589 -28.14939,1.36239 177.60612,0.33169 l 0.62071,-0.35 z"
       id="path3913-1-80-8"
       inkscape:connector-curvature="0"
       sodipodi:nodetypes="cccccccccccccccccc" />
  </g>
  <g
     inkscape:label="Layer 1"
     inkscape:groupmode="layer"
     id="layer1"
     transform="translate(0,-572.36218)">
    <path
       style="fill:#000000;fill-opacity:1;fill-rule:nonzero;stroke:none"
       d="m 370.00001,652.36218 c -1.90754,4.50972 -3.0392,9.05296 -2.85043,14.07519 -0.85141,6.87471 -6.50439,11.76523 -9.40994,17.80922 -1.76071,3.82234 -4.68646,6.95805 -8.75115,8.41179 -5.17052,3.35057 -11.03166,5.46549 -16.67135,7.90275 -4.13176,0.29237 -8.18362,1.38237 -12.31713,1.80105 -7.99934,-0.0813 -15.26489,-3.94818 -22.29395,-7.27792 -5.13516,-3.08361 -10.28243,-6.43521 -14.39641,-10.77403 -5.92187,-8.47553 -8.5106,-18.61603 -12.84059,-27.87577 -1.09105,-7.33825 -0.82786,-15.33387 3.10363,-21.88661 1.93009,-5.09906 4.66077,-10.01982 9.08427,-13.42991 2.63346,-3.17731 5.14952,-6.5562 8.88439,-8.60901 4.38057,-2.98167 9.90763,-3.68898 14.22708,-6.78246 6.52728,-1.56442 13.20355,-4.71347 20.02316,-2.70749 5.76075,1.79696 11.54154,3.6539 17.11628,5.96127 7.45818,3.20779 13.01692,9.21835 18.71382,14.70862 4.29948,4.76132 4.67611,11.42008 6.60488,17.23917 0.92012,3.74769 1.74373,7.56251 1.77344,11.43414 z"
       id="path2985"
       inkscape:connector-curvature="0" />
    <path
       style="fill:#ffffff;fill-opacity:1;fill-rule:nonzero;stroke:none"
       d="m 365,652.36218 c -0.19759,7.21875 -1.44,14.49421 -3.93661,21.33666 -3.08334,6.01398 -7.87488,11.36384 -13.66346,15.30949 -4.30664,2.55505 -8.55887,5.21132 -12.92595,7.66252 -6.90929,2.81634 -15.0299,3.32172 -22.20871,1.05931 -6.74523,-1.36239 -12.71731,-4.76887 -19.19115,-6.86417 -3.71104,-3.06984 -7.43909,-6.83424 -9.22688,-11.12962 -0.7369,-4.93362 -6.24104,-7.7629 -7.03741,-12.7443 -1.73197,-5.51773 -2.771,-11.22227 -2.35303,-16.97948 -0.40106,-4.12211 -2.52258,-8.39211 0.44836,-12.2308 3.38211,-6.54375 6.4854,-13.61558 12.29289,-18.66798 5.9183,-3.97563 11.74966,-8.23746 18.40877,-11.10279 6.09595,-1.83227 12.55508,-0.26694 18.82676,-0.63972 7.48233,-0.37484 14.54533,2.56906 20.22628,6.88106 5.1398,3.61722 10.48566,7.24426 13.70908,12.57462 3.95121,6.03212 7.21422,12.95303 7.01664,20.1262 -0.16338,1.80078 -0.40394,3.59845 -0.38558,5.409 z"
       id="path3757-4"
       inkscape:connector-curvature="0" />
  </g>
</svg>
