<?xml version="1.0" encoding="UTF-8" standalone="no"?>
<!-- Created with Inkscape (http://www.inkscape.org/) -->

<svg
   xmlns:dc="http://purl.org/dc/elements/1.1/"
   xmlns:cc="http://creativecommons.org/ns#"
   xmlns:rdf="http://www.w3.org/1999/02/22-rdf-syntax-ns#"
   xmlns:svg="http://www.w3.org/2000/svg"
   xmlns="http://www.w3.org/2000/svg"
   xmlns:sodipodi="http://sodipodi.sourceforge.net/DTD/sodipodi-0.dtd"
   xmlns:inkscape="http://www.inkscape.org/namespaces/inkscape"
   width="245"
   height="61"
   id="svg4787"
   version="1.1"
   inkscape:version="0.48.0 r9654"
   sodipodi:docname="New document 16">
  <defs
     id="defs4789" />
  <sodipodi:namedview
     id="base"
     pagecolor="#ffffff"
     bordercolor="#666666"
     borderopacity="1.0"
     inkscape:pageopacity="0.0"
     inkscape:pageshadow="2"
     inkscape:zoom="3.959798"
     inkscape:cx="137.43654"
     inkscape:cy="43.149194"
     inkscape:document-units="px"
     inkscape:current-layer="layer1"
     showgrid="false"
     inkscape:window-width="1280"
     inkscape:window-height="723"
     inkscape:window-x="0"
     inkscape:window-y="24"
     inkscape:window-maximized="1" />
  <metadata
     id="metadata4792">
    <rdf:RDF>
      <cc:Work
         rdf:about="">
        <dc:format>image/svg+xml</dc:format>
        <dc:type
           rdf:resource="http://purl.org/dc/dcmitype/StillImage" />
        <dc:title></dc:title>
      </cc:Work>
    </rdf:RDF>
  </metadata>
  <g
     inkscape:label="Layer 1"
     inkscape:groupmode="layer"
     id="layer1"
     transform="translate(0,-991.36218)">
    <path
       style="fill:#ffffff;fill-opacity:1;stroke:none;display:inline"
       d="m 6.790071,997.75094 223.749999,-4.28571 9.82143,3.75 0.35714,50.89287 -5.17857,1.7857 -95.53572,0.5357 -37.32143,0.5357 -15.892849,-0.3571 -79.82143,-2.1429 -3.5714296,-16.0714 -0.35714,-31.4286 z"
       id="path4644"
       inkscape:connector-curvature="0" />
    <path
       style="fill:#000000;fill-opacity:1;display:inline"
       d="m 230.82368,1051.6366 c -44.17267,-3.9377 -43.43198,3.5727 -226.632219,-2.9753 0.60725,-3.3257 -3.1936896,-22.7461 -2.7373496,-34.056 -0.48428,-2.0544 -0.36461,-10.9118 0.452,-14.3952 10.1120496,-12.3832 41.5884096,-0.67153 58.7024696,-5.78414 32.1025,-1.38504 -16.28186,-2.53672 172.410349,-1.6116 22.33497,3.69789 2.39882,7.73594 9.49951,25.01924 -2.04727,17.7422 0.60247,16.665 0.59379,31.1221 -2.62576,4.3714 -8.2464,1.9724 -12.28855,2.6809 z m 6.7779,-3.5783 c 0.70895,-6.3809 3.66232,6.9648 1.32284,-50.46269 -23.39986,-4.57111 -49.89843,-1.12162 -74.51695,-2.33204 -4.48128,-0.55884 25.71782,-1.24033 -158.175009,3.88547 -2.8356596,2.69716 -0.70727,1.31796 -0.72235,40.33286 9.75723,19.0014 51.40269,2.654 72.37735,8.6046 30.835589,4.6471 -25.22545,2.0993 159.157769,0.5111 l 0.55624,-0.5393 z"
       id="path3913-1"
       inkscape:connector-curvature="0"
       sodipodi:nodetypes="cccccccccccccccccc" />
    <text
       xml:space="preserve"
       style="font-size:32px;font-style:normal;font-variant:normal;font-weight:normal;font-stretch:normal;line-height:125%;letter-spacing:0px;word-spacing:0px;fill:#000000;fill-opacity:1;stroke:none;display:inline;font-family:Purisa;-inkscape-font-specification:Purisa"
       x="7.2954245"
       y="1033.0135"
       id="text4640"
       sodipodi:linespacing="125%"><tspan
         sodipodi:role="line"
         id="tspan4642"
         x="7.2954245"
         y="1033.0135">restart game</tspan></text>
  </g>
</svg>
