<?xml version="1.0" encoding="UTF-8" standalone="no"?>
<!-- Created with Inkscape (http://www.inkscape.org/) -->

<svg
   xmlns:dc="http://purl.org/dc/elements/1.1/"
   xmlns:cc="http://creativecommons.org/ns#"
   xmlns:rdf="http://www.w3.org/1999/02/22-rdf-syntax-ns#"
   xmlns:svg="http://www.w3.org/2000/svg"
   xmlns="http://www.w3.org/2000/svg"
   xmlns:sodipodi="http://sodipodi.sourceforge.net/DTD/sodipodi-0.dtd"
   xmlns:inkscape="http://www.inkscape.org/namespaces/inkscape"
   width="301"
   height="33"
   id="svg2"
   version="1.1"
   inkscape:version="0.48.0 r9654"
   sodipodi:docname="webcomicstrips.svg">
  <defs
     id="defs4" />
  <sodipodi:namedview
     id="base"
     pagecolor="#ffffff"
     bordercolor="#666666"
     borderopacity="1.0"
     inkscape:pageopacity="0.0"
     inkscape:pageshadow="2"
     inkscape:zoom="3.959798"
     inkscape:cx="224.35038"
     inkscape:cy="40.073707"
     inkscape:document-units="px"
     inkscape:current-layer="layer1"
     showgrid="false"
     inkscape:window-width="1280"
     inkscape:window-height="723"
     inkscape:window-x="0"
     inkscape:window-y="24"
     inkscape:window-maximized="1" />
  <metadata
     id="metadata7">
    <rdf:RDF>
      <cc:Work
         rdf:about="">
        <dc:format>image/svg+xml</dc:format>
        <dc:type
           rdf:resource="http://purl.org/dc/dcmitype/StillImage" />
        <dc:title />
      </cc:Work>
    </rdf:RDF>
  </metadata>
  <g
     inkscape:label="Layer 1"
     inkscape:groupmode="layer"
     id="layer1"
     transform="translate(0,-1019.3622)">
    <g
       style="font-size:32px;font-style:normal;font-variant:normal;font-weight:bold;font-stretch:normal;text-align:start;line-height:125%;letter-spacing:0px;word-spacing:0px;writing-mode:lr-tb;text-anchor:start;fill:#000000;fill-opacity:1;stroke:none;font-family:Ubuntu;-inkscape-font-specification:Ubuntu Bold"
       id="text3101"
       transform="translate(-80.000001,698.42857)">
      <path
         d="m 97.242048,327.4677 c 0.255982,0.87468 0.533315,1.86668 0.832,2.976 0.319981,1.08801 0.650647,2.21868 0.992,3.392 0.362647,1.17334 0.725313,2.34667 1.088002,3.52 0.36264,1.17334 0.71464,2.26134 1.056,3.264 0.27731,-1.088 0.55464,-2.272 0.832,-3.552 0.29864,-1.27999 0.57597,-2.60266 0.832,-3.968 0.25597,-1.36532 0.50131,-2.71999 0.736,-4.064 0.25597,-1.36532 0.49064,-2.67732 0.704,-3.936 l 5.184,0 c -0.7467,3.71201 -1.6107,7.47734 -2.592,11.296 -0.96003,3.81867 -2.00536,7.44533 -3.136,10.88 l -4.576002,0 c -0.746686,-2.048 -1.472018,-4.192 -2.176,-6.432 -0.704017,-2.26133 -1.397349,-4.52266 -2.08,-6.784 -0.682681,2.26134 -1.365347,4.52267 -2.048,6.784 -0.682679,2.24 -1.397345,4.384 -2.144,6.432 l -4.576,0 c -1.130672,-3.43467 -2.186671,-7.06133 -3.168,-10.88 -0.960003,-3.81866 -1.813335,-7.58399 -2.56,-11.296 l 5.408,0 c 0.213327,1.25868 0.447993,2.57068 0.704,3.936 0.255993,1.34401 0.522659,2.69868 0.8,4.064 0.277325,1.36534 0.554658,2.68801 0.832,3.968 0.298658,1.28 0.597324,2.464 0.896,3.552 0.38399,-1.04533 0.757323,-2.15466 1.12,-3.328 0.362656,-1.17333 0.714655,-2.34666 1.056,-3.52 0.341321,-1.17332 0.650654,-2.30399 0.928,-3.392 0.298654,-1.08799 0.56532,-2.05865 0.8,-2.912 l 4.256,0"
         id="path3106"
         inkscape:connector-curvature="0" />
      <path
         d="m 110.49205,338.9877 c 0,-1.49333 0.224,-2.79466 0.672,-3.904 0.46933,-1.13066 1.07733,-2.06932 1.824,-2.816 0.74666,-0.74666 1.59999,-1.31199 2.56,-1.696 0.98132,-0.38399 1.98399,-0.57599 3.008,-0.576 2.38932,10e-6 4.27732,0.73601 5.664,2.208 1.38665,1.45068 2.07998,3.59467 2.08,6.432 -2e-5,0.27734 -0.0107,0.58667 -0.032,0.928 -0.0213,0.32 -0.0427,0.608 -0.064,0.864 l -10.816,0 c 0.10666,0.98134 0.56532,1.76 1.376,2.336 0.81066,0.576 1.89865,0.864 3.264,0.864 0.87465,0 1.72799,-0.0747 2.56,-0.224 0.85332,-0.17067 1.54665,-0.37333 2.08,-0.608 l 0.64,3.872 c -0.25602,0.128 -0.59735,0.256 -1.024,0.384 -0.42668,0.128 -0.90668,0.23466 -1.44,0.32 -0.51202,0.10666 -1.06668,0.192 -1.664,0.256 -0.59735,0.064 -1.19468,0.096 -1.792,0.096 -1.51468,0 -2.83734,-0.224 -3.968,-0.672 -1.10934,-0.448 -2.03734,-1.056 -2.784,-1.824 -0.72534,-0.78933 -1.26934,-1.71733 -1.632,-2.784 -0.34134,-1.06666 -0.512,-2.21866 -0.512,-3.456 m 11.2,-1.824 c -0.0213,-0.40533 -0.096,-0.79999 -0.224,-1.184 -0.10668,-0.38399 -0.28801,-0.72533 -0.544,-1.024 -0.23468,-0.29866 -0.54401,-0.54399 -0.928,-0.736 -0.36268,-0.19199 -0.82135,-0.28799 -1.376,-0.288 -0.53334,1e-5 -0.99201,0.096 -1.376,0.288 -0.38401,0.17068 -0.70401,0.40534 -0.96,0.704 -0.25601,0.29867 -0.45868,0.65067 -0.608,1.056 -0.12801,0.38401 -0.22401,0.77867 -0.288,1.184 l 6.304,0"
         id="path3108"
         inkscape:connector-curvature="0" />
      <path
         d="m 140.76355,338.7317 c -2e-5,-3.07199 -1.13068,-4.60799 -3.392,-4.608 -0.49068,1e-5 -0.98134,0.064 -1.472,0.192 -0.46934,0.12801 -0.85334,0.28801 -1.152,0.48 l 0,8.672 c 0.23466,0.0427 0.53332,0.0853 0.896,0.128 0.36266,0.0213 0.75732,0.032 1.184,0.032 1.30132,0 2.28265,-0.448 2.944,-1.344 0.66132,-0.896 0.99198,-2.08 0.992,-3.552 m 4.864,0.128 c -2e-5,1.344 -0.20269,2.56 -0.608,3.648 -0.38402,1.088 -0.94935,2.016 -1.696,2.784 -0.74668,0.768 -1.66402,1.36533 -2.752,1.792 -1.08801,0.40533 -2.32535,0.608 -3.712,0.608 -0.57601,0 -1.18401,-0.032 -1.824,-0.096 -0.61868,-0.0427 -1.23734,-0.10667 -1.856,-0.192 -0.59734,-0.0853 -1.17334,-0.18134 -1.728,-0.288 -0.55467,-0.128 -1.04534,-0.256 -1.472,-0.384 l 0,-23.52 4.768,-0.768 0,8.384 c 0.53332,-0.23465 1.08799,-0.41599 1.664,-0.544 0.57599,-0.12799 1.19465,-0.19199 1.856,-0.192 1.19465,10e-6 2.25065,0.21335 3.168,0.64 0.91732,0.40535 1.68532,0.99201 2.304,1.76 0.61865,0.76801 1.08798,1.69601 1.408,2.784 0.31998,1.06667 0.47998,2.26134 0.48,3.584"
         id="path3110"
         inkscape:connector-curvature="0" />
      <path
         d="m 148.49205,338.8597 c 0,-1.21599 0.192,-2.35733 0.576,-3.424 0.40533,-1.08799 0.98133,-2.02666 1.728,-2.816 0.74666,-0.81066 1.65333,-1.45065 2.72,-1.92 1.06666,-0.46932 2.28266,-0.70399 3.648,-0.704 0.89599,10e-6 1.71732,0.0854 2.464,0.256 0.74665,0.14935 1.47198,0.37335 2.176,0.672 l -0.992,3.808 c -0.44802,-0.17066 -0.93868,-0.31999 -1.472,-0.448 -0.53335,-0.12799 -1.13068,-0.19199 -1.792,-0.192 -1.40801,10e-6 -2.46401,0.43734 -3.168,1.312 -0.68268,0.87467 -1.02401,2.02667 -1.024,3.456 -1e-5,1.51467 0.31999,2.688 0.96,3.52 0.66132,0.832 1.80266,1.248 3.424,1.248 0.57599,0 1.19465,-0.0533 1.856,-0.16 0.66132,-0.10667 1.26932,-0.27733 1.824,-0.512 l 0.672,3.904 c -0.55468,0.23466 -1.24802,0.43733 -2.08,0.608 -0.83201,0.17066 -1.74935,0.256 -2.752,0.256 -1.53601,0 -2.85868,-0.224 -3.968,-0.672 -1.10934,-0.46934 -2.02667,-1.09867 -2.752,-1.888 -0.70401,-0.78933 -1.22667,-1.71733 -1.568,-2.784 -0.32,-1.088 -0.48,-2.26133 -0.48,-3.52"
         style="fill:#00aad4"
         id="path3112"
         inkscape:connector-curvature="0" />
      <path
         d="m 180.22355,338.8277 c -2e-5,1.32267 -0.19202,2.53867 -0.576,3.648 -0.38402,1.088 -0.93869,2.02667 -1.664,2.816 -0.72535,0.768 -1.60002,1.36533 -2.624,1.792 -1.00268,0.42666 -2.13335,0.64 -3.392,0.64 -1.23734,0 -2.36801,-0.21334 -3.392,-0.64 -1.00267,-0.42667 -1.86667,-1.024 -2.592,-1.792 -0.72534,-0.78933 -1.29067,-1.728 -1.696,-2.816 -0.40534,-1.10933 -0.608,-2.32533 -0.608,-3.648 0,-1.32266 0.20266,-2.52799 0.608,-3.616 0.42666,-1.08799 1.00266,-2.01599 1.728,-2.784 0.74666,-0.76799 1.62133,-1.36532 2.624,-1.792 1.02399,-0.42665 2.13332,-0.63999 3.328,-0.64 1.21599,10e-6 2.32532,0.21335 3.328,0.64 1.02398,0.42668 1.89865,1.02401 2.624,1.792 0.72531,0.76801 1.29065,1.69601 1.696,2.784 0.40531,1.08801 0.60798,2.29334 0.608,3.616 m -4.864,0 c -2e-5,-1.47199 -0.29868,-2.62399 -0.896,-3.456 -0.57601,-0.85332 -1.40801,-1.27999 -2.496,-1.28 -1.08801,10e-6 -1.93068,0.42668 -2.528,1.28 -0.59734,0.83201 -0.89601,1.98401 -0.896,3.456 -1e-5,1.472 0.29866,2.64533 0.896,3.52 0.59732,0.85333 1.43999,1.28 2.528,1.28 1.08799,0 1.91999,-0.42667 2.496,-1.28 0.59732,-0.87467 0.89598,-2.048 0.896,-3.52"
         style="fill:#00aad4"
         id="path3114"
         inkscape:connector-curvature="0" />
      <path
         d="m 193.16505,338.3477 c -1e-5,-1.53599 -0.20268,-2.62399 -0.608,-3.264 -0.38401,-0.63999 -1.05601,-0.95999 -2.016,-0.96 -0.29868,1e-5 -0.60801,0.0213 -0.928,0.064 -0.32001,0.0213 -0.62934,0.0533 -0.928,0.096 l 0,12.992 -4.768,0 0,-16.256 c 0.40533,-0.10665 0.87466,-0.21332 1.408,-0.32 0.55466,-0.12799 1.13066,-0.23465 1.728,-0.32 0.61866,-0.10665 1.24799,-0.18132 1.888,-0.224 0.63999,-0.064 1.26932,-0.096 1.888,-0.096 1.21599,10e-6 2.19732,0.16001 2.944,0.48 0.76798,0.29868 1.39732,0.66135 1.888,1.088 0.68265,-0.49065 1.46132,-0.87465 2.336,-1.152 0.89598,-0.27732 1.71731,-0.41599 2.464,-0.416 1.34398,10e-6 2.44264,0.19201 3.296,0.576 0.87464,0.36268 1.56797,0.88534 2.08,1.568 0.51197,0.68268 0.86397,1.49334 1.056,2.432 0.19197,0.93867 0.28797,1.98401 0.288,3.136 l 0,9.504 -4.768,0 0,-8.928 c -2e-5,-1.53599 -0.20269,-2.62399 -0.608,-3.264 -0.38402,-0.63999 -1.05602,-0.95999 -2.016,-0.96 -0.25602,1e-5 -0.61869,0.064 -1.088,0.192 -0.44802,0.12801 -0.82135,0.28801 -1.12,0.48 0.14932,0.49067 0.24531,1.01334 0.288,1.568 0.0427,0.53334 0.064,1.10934 0.064,1.728 l 0,9.184 -4.768,0 0,-8.928"
         style="fill:#00aad4"
         id="path3116"
         inkscape:connector-curvature="0" />
      <path
         d="m 219.92955,338.8597 c 0,-1.21599 0.192,-2.35733 0.576,-3.424 0.40533,-1.08799 0.98133,-2.02666 1.728,-2.816 0.74666,-0.81066 1.65333,-1.45065 2.72,-1.92 1.06666,-0.46932 2.28266,-0.70399 3.648,-0.704 0.89599,10e-6 1.71732,0.0854 2.464,0.256 0.74665,0.14935 1.47198,0.37335 2.176,0.672 l -0.992,3.808 c -0.44802,-0.17066 -0.93868,-0.31999 -1.472,-0.448 -0.53335,-0.12799 -1.13068,-0.19199 -1.792,-0.192 -1.40801,10e-6 -2.46401,0.43734 -3.168,1.312 -0.68268,0.87467 -1.02401,2.02667 -1.024,3.456 -1e-5,1.51467 0.31999,2.688 0.96,3.52 0.66132,0.832 1.80266,1.248 3.424,1.248 0.57599,0 1.19465,-0.0533 1.856,-0.16 0.66132,-0.10667 1.26932,-0.27733 1.824,-0.512 l 0.672,3.904 c -0.55468,0.23466 -1.24802,0.43733 -2.08,0.608 -0.83201,0.17066 -1.74935,0.256 -2.752,0.256 -1.53601,0 -2.85868,-0.224 -3.968,-0.672 -1.10934,-0.46934 -2.02667,-1.09867 -2.752,-1.888 -0.70401,-0.78933 -1.22667,-1.71733 -1.568,-2.784 -0.32,-1.088 -0.48,-2.26133 -0.48,-3.52"
         style="fill:#00aad4"
         id="path3120"
         inkscape:connector-curvature="0" />
      <path
         d="m 241.56155,343.8517 c 0.87466,0 1.49332,-0.0853 1.856,-0.256 0.36266,-0.17067 0.54399,-0.50133 0.544,-0.992 -10e-6,-0.384 -0.23468,-0.71467 -0.704,-0.992 -0.46934,-0.29866 -1.18401,-0.62933 -2.144,-0.992 -0.74667,-0.27733 -1.42934,-0.56533 -2.048,-0.864 -0.59734,-0.29866 -1.10934,-0.65066 -1.536,-1.056 -0.42667,-0.42666 -0.75734,-0.92799 -0.992,-1.504 -0.23467,-0.57599 -0.352,-1.26933 -0.352,-2.08 0,-1.57866 0.58666,-2.82666 1.76,-3.744 1.17333,-0.91732 2.78399,-1.37599 4.832,-1.376 1.02399,10e-6 2.00532,0.096 2.944,0.288 0.93865,0.17068 1.68532,0.36268 2.24,0.576 l -0.832,3.712 c -0.55468,-0.19199 -1.16268,-0.36266 -1.824,-0.512 -0.64001,-0.14932 -1.36535,-0.22399 -2.176,-0.224 -1.49334,1e-5 -2.24001,0.41601 -2.24,1.248 -1e-5,0.19201 0.032,0.36267 0.096,0.512 0.064,0.14934 0.19199,0.29867 0.384,0.448 0.19199,0.12801 0.44799,0.27734 0.768,0.448 0.34132,0.14934 0.76799,0.32001 1.28,0.512 1.04532,0.38401 1.90932,0.76801 2.592,1.152 0.68265,0.36267 1.21598,0.768 1.6,1.216 0.40532,0.42667 0.68265,0.90667 0.832,1.44 0.17065,0.53334 0.25598,1.152 0.256,1.856 -2e-5,1.664 -0.62935,2.92266 -1.888,3.776 -1.23735,0.85333 -2.99734,1.28 -5.28,1.28 -1.49334,0 -2.74134,-0.128 -3.744,-0.384 -0.98134,-0.256 -1.664,-0.46934 -2.048,-0.64 l 0.8,-3.872 c 0.81066,0.32 1.64266,0.576 2.496,0.768 0.85333,0.17067 1.69599,0.256 2.528,0.256"
         style="fill:#000000;fill-opacity:1"
         id="path3122"
         inkscape:connector-curvature="0" />
      <path
         d="m 252.06955,326.2517 4.768,-0.768 0,4.96 5.728,0 0,3.968 -5.728,0 0,5.92 c -1e-5,1.00267 0.17066,1.80267 0.512,2.4 0.36266,0.59733 1.07732,0.896 2.144,0.896 0.51199,0 1.03465,-0.0427 1.568,-0.128 0.55465,-0.10667 1.05599,-0.24533 1.504,-0.416 l 0.672,3.712 c -0.57601,0.23466 -1.21601,0.43733 -1.92,0.608 -0.70401,0.17066 -1.56801,0.256 -2.592,0.256 -1.30134,0 -2.37868,-0.17067 -3.232,-0.512 -0.85334,-0.36267 -1.53601,-0.85334 -2.048,-1.472 -0.51201,-0.64 -0.87467,-1.408 -1.088,-2.304 -0.192,-0.896 -0.288,-1.888 -0.288,-2.976 l 0,-14.144"
         id="path3124"
         inkscape:connector-curvature="0" />
      <path
         d="m 276.56105,334.6677 c -0.42668,-0.10666 -0.92801,-0.21332 -1.504,-0.32 -0.57601,-0.12799 -1.19468,-0.19199 -1.856,-0.192 -0.29868,10e-6 -0.66134,0.032 -1.088,0.096 -0.40534,0.0427 -0.71468,0.096 -0.928,0.16 l 0,12.864 -4.768,0 0,-15.936 c 0.85333,-0.29865 1.85599,-0.57599 3.008,-0.832 1.17332,-0.27732 2.47466,-0.41599 3.904,-0.416 0.25599,10e-6 0.56532,0.0213 0.928,0.064 0.36265,0.0213 0.72532,0.064 1.088,0.128 0.36265,0.0427 0.72532,0.10668 1.088,0.192 0.36265,0.064 0.67198,0.14935 0.928,0.256 l -0.8,3.936"
         id="path3126"
         inkscape:connector-curvature="0" />
      <path
         d="m 284.68505,347.2757 -4.768,0 0,-16.832 4.768,0 0,16.832 m 0.448,-21.696 c -1e-5,0.87468 -0.28801,1.56802 -0.864,2.08 -0.55467,0.49068 -1.21601,0.73601 -1.984,0.736 -0.76801,1e-5 -1.44001,-0.24532 -2.016,-0.736 -0.55467,-0.51198 -0.832,-1.20532 -0.832,-2.08 0,-0.87465 0.27733,-1.55731 0.832,-2.048 0.57599,-0.51198 1.24799,-0.76798 2.016,-0.768 0.76799,2e-5 1.42933,0.25602 1.984,0.768 0.57599,0.49069 0.86399,1.17335 0.864,2.048"
         id="path3128"
         inkscape:connector-curvature="0" />
      <path
         d="m 299.95105,338.9877 c -2e-5,-1.47199 -0.33068,-2.64533 -0.992,-3.52 -0.66135,-0.89599 -1.64268,-1.34399 -2.944,-1.344 -0.42668,1e-5 -0.82134,0.0213 -1.184,0.064 -0.36268,0.0213 -0.66134,0.0533 -0.896,0.096 l 0,8.608 c 0.29866,0.192 0.68266,0.352 1.152,0.48 0.49066,0.128 0.98132,0.192 1.472,0.192 2.26132,0 3.39198,-1.52533 3.392,-4.576 m 4.864,-0.128 c -2e-5,1.30134 -0.16002,2.48534 -0.48,3.552 -0.32002,1.06667 -0.78935,1.984 -1.408,2.752 -0.61868,0.768 -1.38668,1.36533 -2.304,1.792 -0.91735,0.42666 -1.97335,0.64 -3.168,0.64 -0.66135,0 -1.28001,-0.064 -1.856,-0.192 -0.57601,-0.128 -1.13068,-0.30934 -1.664,-0.544 l 0,6.336 -4.768,0 0,-22.176 c 0.42666,-0.12799 0.91733,-0.24532 1.472,-0.352 0.55466,-0.12799 1.13066,-0.23465 1.728,-0.32 0.61866,-0.0853 1.23732,-0.14932 1.856,-0.192 0.63999,-0.064 1.24799,-0.096 1.824,-0.096 1.38665,10e-6 2.62399,0.21335 3.712,0.64 1.08798,0.40535 2.00532,0.99201 2.752,1.76 0.74665,0.74668 1.31198,1.66401 1.696,2.752 0.40531,1.08801 0.60798,2.30401 0.608,3.648"
         id="path3130"
         inkscape:connector-curvature="0" />
      <path
         d="m 313.31155,343.8517 c 0.87466,0 1.49332,-0.0853 1.856,-0.256 0.36266,-0.17067 0.54399,-0.50133 0.544,-0.992 -10e-6,-0.384 -0.23468,-0.71467 -0.704,-0.992 -0.46934,-0.29866 -1.18401,-0.62933 -2.144,-0.992 -0.74667,-0.27733 -1.42934,-0.56533 -2.048,-0.864 -0.59734,-0.29866 -1.10934,-0.65066 -1.536,-1.056 -0.42667,-0.42666 -0.75734,-0.92799 -0.992,-1.504 -0.23467,-0.57599 -0.352,-1.26933 -0.352,-2.08 0,-1.57866 0.58666,-2.82666 1.76,-3.744 1.17333,-0.91732 2.78399,-1.37599 4.832,-1.376 1.02399,10e-6 2.00532,0.096 2.944,0.288 0.93865,0.17068 1.68532,0.36268 2.24,0.576 l -0.832,3.712 c -0.55468,-0.19199 -1.16268,-0.36266 -1.824,-0.512 -0.64001,-0.14932 -1.36535,-0.22399 -2.176,-0.224 -1.49334,1e-5 -2.24001,0.41601 -2.24,1.248 -10e-6,0.19201 0.032,0.36267 0.096,0.512 0.064,0.14934 0.19199,0.29867 0.384,0.448 0.19199,0.12801 0.44799,0.27734 0.768,0.448 0.34132,0.14934 0.76799,0.32001 1.28,0.512 1.04532,0.38401 1.90932,0.76801 2.592,1.152 0.68265,0.36267 1.21598,0.768 1.6,1.216 0.40532,0.42667 0.68265,0.90667 0.832,1.44 0.17065,0.53334 0.25598,1.152 0.256,1.856 -2e-5,1.664 -0.62935,2.92266 -1.888,3.776 -1.23735,0.85333 -2.99734,1.28 -5.28,1.28 -1.49334,0 -2.74134,-0.128 -3.744,-0.384 -0.98134,-0.256 -1.664,-0.46934 -2.048,-0.64 l 0.8,-3.872 c 0.81066,0.32 1.64266,0.576 2.496,0.768 0.85333,0.17067 1.69599,0.256 2.528,0.256"
         id="path3132"
         inkscape:connector-curvature="0" />
      <path
         d="m 328.65155,344.7477 c -10e-6,0.96 -0.30934,1.696 -0.928,2.208 -0.59734,0.49066 -1.28001,0.736 -2.048,0.736 -0.76801,0 -1.46134,-0.24534 -2.08,-0.736 -0.59734,-0.512 -0.896,-1.248 -0.896,-2.208 0,-0.96 0.29866,-1.68533 0.896,-2.176 0.61866,-0.512 1.31199,-0.768 2.08,-0.768 0.76799,0 1.45066,0.256 2.048,0.768 0.61866,0.49067 0.92799,1.216 0.928,2.176"
         id="path3134"
         inkscape:connector-curvature="0" />
      <path
         d="m 331.85455,331.0197 c 0.81066,-0.23465 1.85599,-0.44799 3.136,-0.64 1.27999,-0.21332 2.62399,-0.31999 4.032,-0.32 1.42932,10e-6 2.61332,0.19201 3.552,0.576 0.95998,0.36268 1.71732,0.88534 2.272,1.568 0.55465,0.68268 0.94931,1.49334 1.184,2.432 0.23465,0.93867 0.35198,1.98401 0.352,3.136 l 0,9.504 -4.768,0 0,-8.928 c -1e-5,-1.53599 -0.20268,-2.62399 -0.608,-3.264 -0.40535,-0.63999 -1.16268,-0.95999 -2.272,-0.96 -0.34134,1e-5 -0.70401,0.0213 -1.088,0.064 -0.38401,0.0213 -0.72534,0.0533 -1.024,0.096 l 0,12.992 -4.768,0 0,-16.256"
         id="path3136"
         inkscape:connector-curvature="0" />
      <path
         d="m 349.92955,338.9877 c 0,-1.49333 0.224,-2.79466 0.672,-3.904 0.46933,-1.13066 1.07733,-2.06932 1.824,-2.816 0.74666,-0.74666 1.59999,-1.31199 2.56,-1.696 0.98132,-0.38399 1.98399,-0.57599 3.008,-0.576 2.38932,10e-6 4.27732,0.73601 5.664,2.208 1.38665,1.45068 2.07998,3.59467 2.08,6.432 -2e-5,0.27734 -0.0107,0.58667 -0.032,0.928 -0.0214,0.32 -0.0427,0.608 -0.064,0.864 l -10.816,0 c 0.10666,0.98134 0.56532,1.76 1.376,2.336 0.81066,0.576 1.89865,0.864 3.264,0.864 0.87465,0 1.72799,-0.0747 2.56,-0.224 0.85332,-0.17067 1.54665,-0.37333 2.08,-0.608 l 0.64,3.872 c -0.25602,0.128 -0.59735,0.256 -1.024,0.384 -0.42668,0.128 -0.90668,0.23466 -1.44,0.32 -0.51202,0.10666 -1.06668,0.192 -1.664,0.256 -0.59735,0.064 -1.19468,0.096 -1.792,0.096 -1.51468,0 -2.83734,-0.224 -3.968,-0.672 -1.10934,-0.448 -2.03734,-1.056 -2.784,-1.824 -0.72534,-0.78933 -1.26934,-1.71733 -1.632,-2.784 -0.34134,-1.06666 -0.512,-2.21866 -0.512,-3.456 m 11.2,-1.824 c -0.0213,-0.40533 -0.096,-0.79999 -0.224,-1.184 -0.10668,-0.38399 -0.28801,-0.72533 -0.544,-1.024 -0.23468,-0.29866 -0.54401,-0.54399 -0.928,-0.736 -0.36268,-0.19199 -0.82135,-0.28799 -1.376,-0.288 -0.53334,1e-5 -0.99201,0.096 -1.376,0.288 -0.38401,0.17068 -0.70401,0.40534 -0.96,0.704 -0.25601,0.29867 -0.45868,0.65067 -0.608,1.056 -0.12801,0.38401 -0.22401,0.77867 -0.288,1.184 l 6.304,0"
         id="path3138"
         inkscape:connector-curvature="0" />
      <path
         d="m 369.25705,326.2517 4.768,-0.768 0,4.96 5.728,0 0,3.968 -5.728,0 0,5.92 c -1e-5,1.00267 0.17066,1.80267 0.512,2.4 0.36266,0.59733 1.07732,0.896 2.144,0.896 0.51199,0 1.03465,-0.0427 1.568,-0.128 0.55465,-0.10667 1.05599,-0.24533 1.504,-0.416 l 0.672,3.712 c -0.57601,0.23466 -1.21601,0.43733 -1.92,0.608 -0.70401,0.17066 -1.56801,0.256 -2.592,0.256 -1.30134,0 -2.37868,-0.17067 -3.232,-0.512 -0.85334,-0.36267 -1.53601,-0.85334 -2.048,-1.472 -0.51201,-0.64 -0.87467,-1.408 -1.088,-2.304 -0.192,-0.896 -0.288,-1.888 -0.288,-2.976 l 0,-14.144"
         id="path3140"
         inkscape:connector-curvature="0" />
    </g>
    <path
       inkscape:connector-curvature="0"
       d="m 137.46991,1005.3592 c -1e-5,0.8747 -0.28801,1.5681 -0.864,2.08 -0.55467,0.4907 -1.21601,0.736 -1.984,0.736 -0.76801,0 -1.44001,-0.2453 -2.016,-0.736 -0.55467,-0.5119 -0.832,-1.2053 -0.832,-2.08 0,-0.8746 0.27733,-1.5573 0.832,-2.048 0.57599,-0.5119 1.24799,-0.7679 2.016,-0.768 0.76799,1e-4 1.42933,0.2561 1.984,0.768 0.57599,0.4907 0.86399,1.1734 0.864,2.048"
       style="font-size:32px;font-style:normal;font-variant:normal;font-weight:bold;font-stretch:normal;text-align:start;line-height:125%;letter-spacing:0px;word-spacing:0px;writing-mode:lr-tb;text-anchor:start;fill:#ff2a2a;fill-opacity:1;stroke:none;font-family:Ubuntu;-inkscape-font-specification:Ubuntu Bold"
       id="path3118-5"
       sodipodi:nodetypes="ccccscccc" />
  </g>
</svg>
